<svg xmlns="http://www.w3.org/2000/svg" viewBox="0 0 91 76"><style>.st0{fill:#017e6f}.st1{fill:#0fc3ad}.st2{fill:#0e9585}</style><path class="st0" d="M67.6 56.4c1.6-1.6 1.3-4.7-1-9-.8-1.5-1.8-3-3-4.6 5.5-1.8 12.8-3.1 21.3-2 .6.1 1.1-.3 1.1-.9.1-.6-.3-1.1-.9-1.1-9.3-1.1-17 .3-22.8 2.3-1.6-2-3.4-4-5.3-6-3.2-3.2-6.5-5.9-9.6-7.9.2-5.9-.2-11.1-1.7-13.6-1.6-2.7-3.5-3.1-4.8-2.9-2.9.5-5.2 4.1-6 7.4-.1.5.2 1.1.8 1.2.5.1 1.1-.2 1.2-.8.7-3 2.6-5.6 4.3-5.9 1-.1 1.9.5 2.8 1.9.7 1.2 1.6 4.2 1.5 11.4-2.8-1.6-5.2-2.5-7.1-2.5-1.2 0-2.1.3-2.7 1-.3.3-.5.7-.7 1.1h-.1S22.8 57.2 21.2 61.4l-.2.4c-3.1 8.1-4.2 11.9-2.6 13.3 0 0 .1 0 .1.1.4.3 1 .5 1.8.5 2 0 5.6-1.1 11.6-3.6 3.8-1.6 33.6-14.6 33.9-14.7l.1-.1c.7-.2 1.3-.4 1.7-.9zm-2.8-8c2 3.8 2 5.9 1.4 6.6-.3.3-.7.4-1.3.4-2.8 0-7.7-2.7-12.7-7 1.3-1 4.6-3.1 9.5-4.9 1.2 1.7 2.3 3.4 3.1 4.9zm-9.2-11.9c1.8 1.8 3.3 3.5 4.8 5.3-5.3 2.1-8.7 4.4-9.7 5.3-1-.9-1.9-1.8-2.9-2.7-.6-.6-1.1-1.2-1.7-1.8.6-4.2 1-8.7 1.3-13.1 2.4 1.7 5.2 4 8.2 7zM38.3 25.4c1.5 0 4 .9 7 2.8-.1 3.3-.5 7.4-1.1 12.4-6.4-7.4-8.6-13.3-7.2-14.8.3-.2.7-.4 1.3-.4zm-7.2 44.8c-9 3.7-10.9 3.6-11.3 3.4l-.1-.1c-.5-1.3 2.1-8.1 3.2-11l.2-.4c1.2-3.3 8.9-23.3 12.1-31.9 1.3 3.9 4.8 8.9 8.9 13.4.7.8 1.4 1.5 2.1 2.2 5.6 5.6 11.4 9.6 15.7 11-7.6 3.4-27.7 12.2-30.8 13.4z"/><path class="st1" d="M67.2 27.9c-.6-2.8-1.6-7 2.1-9.2 2.8-1.7 4.8 1.1 6.3 3.1.9 1.2 1.8 2.5 2.6 2.6.1 0 .4 0 .8-.3 1.4-1.2.6-2.7-.8-5.2-1.1-1.8-2.2-3.7-1.2-5.3 1.3-1.9 3.3-.7 4.5.1 1.7 1.1 3 1.7 4.3.7.9-.7 1.4-1.5 1.5-2.7.3-2.4-1-5.3-2.3-7-.3-.4-.3-1.1.2-1.4.4-.3 1.1-.3 1.4.2 1.6 2.1 3.1 5.6 2.7 8.5-.2 1.7-1 3-2.3 4-2.5 1.9-5 .4-6.6-.6-1.5-.9-1.7-.9-1.8-.7-.3.5.5 1.9 1.2 3.1 1.4 2.3 3.3 5.4.4 7.8-.8.6-1.5.9-2.4.8-1.6-.2-2.8-1.8-4-3.4-1.8-2.5-2.6-3.2-3.7-2.6-2.2 1.3-1.9 3.8-1.1 7 .2 1 .4 1.9.4 2.6 0 .6-.5 1-1 1s-1-.5-1-1c.2-.4 0-1.2-.2-2.1zm-45.1-5.6c-3.1.6-6.7 1.3-8.1-1.3-.5-1-.4-1.7-.2-2.2.6-1.6 2.9-2.4 5-3.1 1.1-.4 3.1-1 3.2-1.5-.1-1.2-2.3-2.5-4.3-3.6-1.1-.7-2.3-1.4-3.2-2.1-1.2-1-1.4-2.1-1.2-2.9.4-2.9 4.8-4.9 6.2-5.5.5-.2 1.1 0 1.3.5.2.5 0 1.1-.5 1.3-2.8 1.2-4.8 2.8-5 3.9 0 .1-.1.5.5 1 .8.6 1.9 1.3 3 1.9 2.5 1.5 5.1 3 5.3 5.3.1 1.9-2.2 2.7-4.6 3.5-1.4.5-3.5 1.2-3.8 1.9 0 .1-.1.2.1.5.7 1.3 3.3.8 5.9.3 2.8-.5 5.7-1.1 7.2.6 1.9 2.3-.2 5.6-2 8.2-.8 1.1-1.6 2.4-1.7 3.1-.1.5-.5.9-1 .9h-.1c-.6-.1-.9-.6-.9-1.1.1-1.1 1-2.4 2.1-4 1.4-2 3.1-4.6 2.1-5.7-.8-.8-3.2-.3-5.3.1zM49.9 7c0-1.3 1-2.3 2.3-2.3s2.3 1 2.3 2.3-1 2.3-2.3 2.3-2.3-1-2.3-2.3zm22.5-1.3c0-1.3 1-2.3 2.3-2.3 1.3 0 2.3 1 2.3 2.3S76 8 74.7 8c-1.3 0-2.3-1.1-2.3-2.3zM22.5 42.9c0 1.3-1 2.3-2.3 2.3-1.3 0-2.3-1-2.3-2.3s1-2.3 2.3-2.3c1.3 0 2.3 1 2.3 2.3zm12.1 8.2c0 1.3-1 2.3-2.3 2.3s-2.3-1-2.3-2.3 1-2.3 2.3-2.3 2.3 1 2.3 2.3zm36.1 12.1c0 1.3-1 2.3-2.3 2.3-1.3 0-2.3-1-2.3-2.3s1-2.3 2.3-2.3c1.3 0 2.3 1 2.3 2.3zM2.3 42.7c-1.3 0-2.3-1-2.3-2.3.1-1.2 1.1-2.2 2.3-2.2 1.3 0 2.3 1 2.3 2.3 0 1.2-1 2.2-2.3 2.2zm3.2 15.9c0 1.3-1 2.3-2.3 2.3s-2.3-1-2.3-2.3 1-2.3 2.3-2.3 2.3 1.1 2.3 2.3zm80 9.1c0 1.3-1 2.3-2.3 2.3-1.3 0-2.3-1-2.3-2.3 0-1.3 1-2.3 2.3-2.3 1.3 0 2.3 1.1 2.3 2.3zM29.6 10.4c0-1.3 1-2.3 2.3-2.3 1.3 0 2.3 1 2.3 2.3s-1 2.3-2.3 2.3c-1.3 0-2.3-1.1-2.3-2.3z"/><path class="st2" d="M56 16.9c1.3 0 2.3 1 2.3 2.3 0 1.3-1 2.3-2.3 2.3s-2.3-1-2.3-2.3c0-1.3 1.1-2.3 2.3-2.3zm21.9 33.7c0 1.3-1 2.3-2.3 2.3-1.3 0-2.3-1-2.3-2.3s1-2.3 2.3-2.3c1.3 0 2.3 1 2.3 2.3zm12.3-3.3c0 1.3-1 2.3-2.3 2.3-1.3 0-2.3-1-2.3-2.3 0-1.3 1-2.3 2.3-2.3 1.3 0 2.3 1 2.3 2.3z"/></svg>