<svg xmlns="http://www.w3.org/2000/svg" viewBox="0 0 48 48"><path d="M48 27.3v11c0 3.4-5 5.7-11 5.7s-11-2.3-11-5.7v-11c.4-3.1 5.2-5.3 11-5.3s10.6 2.2 11 5.3zm-20 3.8V33c0 1.8 4 3.7 9 3.7s9-1.9 9-3.7v-1.9c-2 1.5-5.3 2.3-9 2.3s-7-.9-9-2.3zm18 5.3c-2 1.5-5.3 2.3-9 2.3s-7-.9-9-2.3v1.9c0 1.8 4 3.7 9 3.7s9-1.9 9-3.7v-1.9zM46 13H2v20c0 1.1.9 2 2 2h17c.6 0 1 .4 1 1s-.4 1-1 1H4c-2.2 0-4-1.8-4-4V7c0-2.2 1.8-4 4-4h40c2.2 0 4 1.8 4 4v12c0 .6-.4 1-1 1s-1-.4-1-1v-6zm0-2V7c0-1.1-.9-2-2-2H4c-1.1 0-2 .9-2 2v4h44zm-9 20.4c5 0 9-1.9 9-3.7 0-1.8-4-3.7-9-3.7s-9 1.9-9 3.7c0 1.8 4 3.7 9 3.7z"/></svg>