<svg xmlns="http://www.w3.org/2000/svg" viewBox="0 0 48 48"><path d="M41.3 13.5h3.4c1.7 0 3 1.3 3 3 0 .3 0 .5-.1.7-1.3 5.2-2.3 8.5-2.9 9.9-1.6 3.7-4.1 5.3-10.4 5.3h-13c-.6 0-1-.4-1-1s.4-1 1-1h13c5.5 0 7.3-1.2 8.6-4.1.6-1.3 1.5-4.5 2.8-9.6v-.2c0-.6-.4-1-1-1H11.9c.4 1.5 1 3.6 1.8 6.2 2.1 7.2 2.8 9.7 3 10.5.6 2.3 1.6 3.2 4.5 3.2h18c.6 0 1 .4 1 1s-.4 1-1 1h-18c-3.9 0-5.7-1.6-6.5-4.8-.2-.8-.9-3.4-3-10.5-2.1-7.2-2.8-9.7-3-10.5-.5-2.4-1-3.1-2.4-3.1h-5c-.6 0-1-.4-1-1s.4-1 1-1h5c2.7 0 3.6 1.3 4.5 4.8.1.4.3 1 .6 2.2h3.9V6c0-.8.7-1.5 1.5-1.5h6.5V2c0-.8.7-1.5 1.5-1.5h7c.8 0 1.5.7 1.5 1.5v5.5h6.5c.8 0 1.5.7 1.5 1.5v4.5zM31.3 9V2.5h-6v11h6V9zm-8-2.5h-6v7h6v-7zm10 3v4h6v-4h-6zm2.5 38c-1.9 0-3.5-1.6-3.5-3.5s1.6-3.5 3.5-3.5 3.5 1.6 3.5 3.5-1.6 3.5-3.5 3.5zm0-2c.8 0 1.5-.7 1.5-1.5s-.7-1.5-1.5-1.5-1.5.7-1.5 1.5.7 1.5 1.5 1.5zm-15 2c-1.9 0-3.5-1.6-3.5-3.5s1.6-3.5 3.5-3.5 3.5 1.6 3.5 3.5-1.6 3.5-3.5 3.5zm0-2c.8 0 1.5-.7 1.5-1.5s-.7-1.5-1.5-1.5-1.5.7-1.5 1.5.7 1.5 1.5 1.5z"/></svg>