<svg xmlns="http://www.w3.org/2000/svg" viewBox="0 0 48 48">
	<g>
		<path d="M24,48c-9.3,0-17.7-5.4-21.6-13.6c-0.2-0.5,0-1.1,0.5-1.3s1.1,0,1.3,0.5C7.8,41.1,15.5,46,24,46c8.5,0,16.2-4.9,19.8-12.5c0.4-0.8,1.5-0.7,1.8,0.1l2.3,6.1c0.2,0.5-0.1,1.1-0.6,1.3s-1.1-0.1-1.3-0.6l-1.5-4C40.3,43.5,32.6,48,24,48z M24,0c10.1,0,19.1,6.4,22.5,15.7c0.2,0.5-0.1,1.1-0.6,1.3c-0.5,0.2-1.1-0.1-1.3-0.6C41.5,7.8,33.3,2,24,2C14.7,2,6.5,7.8,3.4,16.4c-0.3,0.9-1.7,0.8-1.9-0.1l-1.4-6C-0.1,9.7,0.2,9.2,0.8,9C1.3,8.9,1.8,9.2,2,9.8l0.7,3.1C6.8,5.1,14.9,0,24,0z M15,15h18c1.7,0,3,1.3,3,3v12c0,1.7-1.3,3-3,3H15c-1.7,0-3-1.3-3-3V18C12,16.3,13.3,15,15,15z M15,17c-0.6,0-1,0.4-1,1v12c0,0.6,0.4,1,1,1h18c0.6,0,1-0.4,1-1V18c0-0.6-0.4-1-1-1H15z"/>
		<rect x="14" y="20" width="20" height="2"/>
	</g>
</svg>
