<svg xmlns="http://www.w3.org/2000/svg" viewBox="0 0 48 48"><path d="M24 48c-9.3 0-17.7-5.4-21.6-13.6-.2-.5 0-1.1.5-1.3s1.1 0 1.3.5C7.8 41.1 15.5 46 24 46s16.2-4.9 19.8-12.5c.4-.8 1.5-.7 1.8.1l2.3 6.1c.2.5-.1 1.1-.6 1.3s-1.1-.1-1.3-.6l-1.5-4C40.3 43.5 32.6 48 24 48zm0-48c10.1 0 19.1 6.4 22.5 15.7.2.5-.1 1.1-.6 1.3-.5.2-1.1-.1-1.3-.6C41.5 7.8 33.3 2 24 2S6.5 7.8 3.4 16.4c-.3.9-1.7.8-1.9-.1l-1.4-6C-.1 9.7.2 9.2.8 9c.5-.1 1 .2 1.2.8l.7 3.1C6.8 5.1 14.9 0 24 0zm-9 15h18c1.7 0 3 1.3 3 3v12c0 1.7-1.3 3-3 3H15c-1.7 0-3-1.3-3-3V18c0-1.7 1.3-3 3-3zm0 2c-.6 0-1 .4-1 1v12c0 .6.4 1 1 1h18c.6 0 1-.4 1-1V18c0-.6-.4-1-1-1H15z"/><path d="M14 20h20v2H14z"/></svg>