<svg xmlns="http://www.w3.org/2000/svg" viewBox="0 0 48 48">
	<g>
		<path d="M20,48v-2h22V2H6v44h6v2H6c-1.1,0-2-0.9-2-2V2c0-1.1,0.9-2,2-2h36c1.1,0,2,0.9,2,2v44c0,1.1-0.9,2-2,2H20z M20,46h22V2H6v44h6c0.6,0,1,0.4,1,1s-0.4,1-1,1H6c-1.1,0-2-0.9-2-2V2c0-1.1,0.9-2,2-2h36c1.1,0,2,0.9,2,2v44c0,1.1-0.9,2-2,2H20c-0.6,0-1-0.4-1-1S19.4,46,20,46z M13,32h22c0.6,0,1,0.4,1,1s-0.4,1-1,1H13c-0.6,0-1-0.4-1-1S12.4,32,13,32z M13,26h22c0.6,0,1,0.4,1,1s-0.4,1-1,1H13c-0.6,0-1-0.4-1-1S12.4,26,13,26z M13,37h16c0.6,0,1,0.4,1,1s-0.4,1-1,1H13c-0.6,0-1-0.4-1-1S12.4,37,13,37z M16.9,19.7c-0.7,0.4-1.6-0.2-1.5-1.1l0.6-3.4l-2.5-2.4c-0.6-0.6-0.3-1.6,0.6-1.7l3.4-0.5l1.5-3.1c0.4-0.7,1.4-0.7,1.8,0l1.5,3.1l3.4,0.5c0.8,0.1,1.1,1.1,0.6,1.7l-2.5,2.4l0.6,3.4c0.1,0.8-0.7,1.4-1.5,1.1L20,18.1L16.9,19.7z M19.5,16.1c0.3-0.2,0.6-0.2,0.9,0l1.7,0.9l-0.3-1.9c-0.1-0.3,0.1-0.7,0.3-0.9l1.4-1.4l-1.9-0.3c-0.3,0-0.6-0.3-0.8-0.5L20,10.3L19.1,12c-0.1,0.3-0.4,0.5-0.8,0.5l-1.9,0.3l1.4,1.4c0.2,0.2,0.3,0.6,0.3,0.9L17.8,17L19.5,16.1z"/>
	</g>
</svg>
