<svg xmlns="http://www.w3.org/2000/svg" viewBox="0 0 48 48">
	<g>
		<path d="M24,33c1.2,0,2.6-0.6,4-1.9v-4.6l0.6-0.6c1.5-1.6,2.4-3.9,2.4-6.5c0-6.8-1.6-9.5-7-9.5s-7,2.7-7,9.5c0,2.5,0.9,4.8,2.4,6.5l0.6,0.6v4.6C21.4,32.4,22.7,33,24,33z M39,25.2c3.1,0.7,5.9,1.7,8.5,2.9l-0.9,1.8c-2.3-1.2-4.9-2.1-7.8-2.7c-1.4,1.2-2.5,1.9-3.2,2.3L35,27.6c0.4-0.2,1.2-0.7,2.1-1.5v-4.6l0.6-0.6c1.5-1.6,2.4-3.9,2.4-6.5C40,7.7,38.5,5,33,5c-2.2,0-3.7,0.5-4.7,1.4L27,4.8C28.3,3.7,30.3,3,33,3c8,0,9,5.7,9,11.5c0,3.1-1.2,5.9-3,7.8V25.2z M9.2,27.2c-2.9,0.6-5.5,1.5-7.8,2.7l-0.9-1.8C3,26.8,5.9,25.9,9,25.2v-2.9c-1.8-1.9-3-4.7-3-7.8C6,8.7,7,3,15,3c2.8,0,4.7,0.7,6,1.8l-1.3,1.5C18.7,5.5,17.2,5,15,5c-5.4,0-7,2.7-7,9.5c0,2.5,0.9,4.8,2.4,6.5l0.6,0.6v4.6c0.9,0.8,1.6,1.3,2.1,1.5l-0.7,1.9C11.7,29.1,10.6,28.4,9.2,27.2z M29.5,32.5C27.7,34.2,25.8,35,24,35c-1.9,0-3.9-0.9-5.8-2.8c-2.9,0.6-5.4,1.5-7.8,2.7C8.3,36,7.2,38.3,7,42l16.5,0l16,0c-0.2-3.7-1.3-6.1-3.4-7.1C34.1,33.9,31.9,33.1,29.5,32.5z M30,30.6c2.5,0.7,4.9,1.5,7,2.6c2.8,1.4,4.3,4.4,4.5,8.8c0.1,1.1-0.8,2-1.9,2.1c0,0,0,0-0.1,0H24H7c0,0,0,0-0.1,0c-1.1-0.1-2-1-1.9-2.1c0.2-4.4,1.7-7.4,4.5-8.8c2.5-1.3,5.4-2.2,8.5-2.9v-2.9c-1.8-1.9-3-4.7-3-7.8C15,13.7,16,8,24,8s9,5.7,9,11.5c0,3.1-1.2,5.9-3,7.8V30.6z"/>
	</g>
</svg>
