<svg xmlns="http://www.w3.org/2000/svg" viewBox="0 0 48 48">
	<g>
		<path d="M46,42c0-0.6,0.4-1,1-1s1,0.4,1,1c0,2.8-2.2,5-5,5H5c-2.8,0-5-2.2-5-5V6c0-2.8,2.2-5,5-5h38c2.8,0,5,2.2,5,5v30c0,0.6-0.4,1-1,1s-1-0.4-1-1V6c0-1.7-1.3-3-3-3H5C3.3,3,2,4.3,2,6v36c0,1.7,1.3,3,3,3h38C44.7,45,46,43.7,46,42z M30.2,31c0.4-1.2,1.5-2,2.8-2c1.7,0,3,1.3,3,3c0,1.7-1.3,3-3,3c-1.3,0-2.4-0.8-2.8-2c-0.1,0-0.1,0-0.2,0H13c-0.6,0-1-0.4-1-1s0.4-1,1-1h17C30.1,31,30.1,31,30.2,31z M21.2,23c0.4-1.2,1.5-2,2.8-2s2.4,0.8,2.8,2c0.1,0,0.1,0,0.2,0h8c0.6,0,1,0.4,1,1s-0.4,1-1,1h-8c-0.1,0-0.1,0-0.2,0c-0.4,1.2-1.5,2-2.8,2s-2.4-0.8-2.8-2c-0.1,0-0.1,0-0.2,0h-8c-0.6,0-1-0.4-1-1s0.4-1,1-1h8C21.1,23,21.1,23,21.2,23z M30.2,15c0.4-1.2,1.5-2,2.8-2c1.7,0,3,1.3,3,3s-1.3,3-3,3c-1.3,0-2.4-0.8-2.8-2H13c-0.6,0-1-0.4-1-1s0.4-1,1-1H30.2z M33,17c0.6,0,1-0.4,1-1s-0.4-1-1-1s-1,0.4-1,1S32.4,17,33,17z M33,33c0.6,0,1-0.4,1-1s-0.4-1-1-1s-1,0.4-1,1S32.4,33,33,33z M24,25c0.6,0,1-0.4,1-1s-0.4-1-1-1s-1,0.4-1,1S23.4,25,24,25z"/>
	</g>
</svg>
