<svg xmlns="http://www.w3.org/2000/svg" viewBox="0 0 48 48"><path d="M46 42c0-.6.4-1 1-1s1 .4 1 1c0 2.8-2.2 5-5 5H5c-2.8 0-5-2.2-5-5V6c0-2.8 2.2-5 5-5h38c2.8 0 5 2.2 5 5v30c0 .6-.4 1-1 1s-1-.4-1-1V6c0-1.7-1.3-3-3-3H5C3.3 3 2 4.3 2 6v36c0 1.7 1.3 3 3 3h38c1.7 0 3-1.3 3-3zM30.2 31c.4-1.2 1.5-2 2.8-2 1.7 0 3 1.3 3 3s-1.3 3-3 3c-1.3 0-2.4-.8-2.8-2H13c-.6 0-1-.4-1-1s.4-1 1-1h17.2zm-9-8c.4-1.2 1.5-2 2.8-2s2.4.8 2.8 2H35c.6 0 1 .4 1 1s-.4 1-1 1h-8.2c-.4 1.2-1.5 2-2.8 2s-2.4-.8-2.8-2H13c-.6 0-1-.4-1-1s.4-1 1-1h8.2zm9-8c.4-1.2 1.5-2 2.8-2 1.7 0 3 1.3 3 3s-1.3 3-3 3c-1.3 0-2.4-.8-2.8-2H13c-.6 0-1-.4-1-1s.4-1 1-1h17.2zm2.8 2c.6 0 1-.4 1-1s-.4-1-1-1-1 .4-1 1 .4 1 1 1zm0 16c.6 0 1-.4 1-1s-.4-1-1-1-1 .4-1 1 .4 1 1 1zm-9-8c.6 0 1-.4 1-1s-.4-1-1-1-1 .4-1 1 .4 1 1 1z"/></svg>