<svg xmlns="http://www.w3.org/2000/svg" viewBox="0 0 48 48">
	<g>
		<path d="M40,21.5c0,0.6-0.4,1-1,1s-1-0.4-1-1v-12H10v12c0,0.6-0.4,1-1,1s-1-0.4-1-1v-7.7c-1.5,1-3.4,2.2-3.9,2.5l0,0c-0.8,0.5-1,0.7-1.3,0.9C2.1,17.7,2,18,2,19.1V21l20.9,14.5c0.7,0.5,1.6,0.5,2.3,0L46,21v-1.9c0-1.2-0.1-1.5-1.4-2.3l0,0c-0.1-0.1-0.2-0.1-0.3-0.2c-0.2-0.1-0.5-0.3-0.8-0.5l0,0c-1.1-0.7-2.5-1.6-3.5-2.2V21.5z M18.5,7.5h11.2L24,3.9C22.9,4.6,21.1,5.8,18.5,7.5z M8,11.5v-2c0-1.1,0.9-2,2-2h4.8c4.6-3,7.5-4.9,8.6-5.6l0.5-0.4l9.6,6H38c1.1,0,2,0.9,2,2v2.1c0.5,0.3,4,2.5,5.6,3.5c1.7,1.1,2.4,1.9,2.4,4v22.9c0,2.5-2,4.6-4.4,4.6H4.4c-2.4,0-4.4-2-4.4-4.6V19.1c0-2.5,1-3.1,3.2-4.6l0,0C4,14,6.6,12.4,8,11.5z M2,23.4v18.5c0,1.4,1.1,2.6,2.4,2.6h39.3c1.3,0,2.4-1.1,2.4-2.6V23.4L26.3,37.1c-1.4,1-3.2,1-4.6,0L2,23.4z"/>
	</g>
</svg>
