<svg xmlns="http://www.w3.org/2000/svg" viewBox="0 0 48 48"><path d="M40 21.5c0 .6-.4 1-1 1s-1-.4-1-1v-12H10v12c0 .6-.4 1-1 1s-1-.4-1-1v-7.7c-1.5 1-3.4 2.2-3.9 2.5-.8.5-1 .7-1.3.9-.7.5-.8.8-.8 1.9V21l20.9 14.5c.7.5 1.6.5 2.3 0L46 21v-1.9c0-1.2-.1-1.5-1.4-2.3-.1-.1-.2-.1-.3-.2-.2-.1-.5-.3-.8-.5-1.1-.7-2.5-1.6-3.5-2.2v7.6zm-21.5-14h11.2L24 3.9c-1.1.7-2.9 1.9-5.5 3.6zM8 11.5v-2c0-1.1.9-2 2-2h4.8c4.6-3 7.5-4.9 8.6-5.6l.5-.4 9.6 6H38c1.1 0 2 .9 2 2v2.1c.5.3 4 2.5 5.6 3.5 1.7 1.1 2.4 1.9 2.4 4V42c0 2.5-2 4.6-4.4 4.6H4.4C2 46.6 0 44.6 0 42V19.1c0-2.5 1-3.1 3.2-4.6.8-.5 3.4-2.1 4.8-3zM2 23.4v18.5c0 1.4 1.1 2.6 2.4 2.6h39.3c1.3 0 2.4-1.1 2.4-2.6V23.4L26.3 37.1c-1.4 1-3.2 1-4.6 0L2 23.4z"/></svg>