<svg xmlns="http://www.w3.org/2000/svg" viewBox="0 0 48 48">
	<g>
		<path d="M25,15.5c0.6,0,1.3-0.3,2-0.8v-2.9l0.6-0.6c0.9-0.9,1.4-2.1,1.4-3.5c0-3.9-0.8-5.2-4-5.2s-4,1.3-4,5.2c0,1.4,0.5,2.6,1.4,3.5l0.6,0.6v2.9C23.7,15.2,24.4,15.5,25,15.5zM10,47.5c-0.6,0-1-0.4-1-1v-14H3c-1.7,0-3-1.3-3-3v-1c0-1.7,1.3-3,3-3c0-1.9,1.3-3.4,3-3.9v-7.1c0-0.4,0.2-0.7,0.5-0.9l3.3-1.9c0-0.8,0.4-1.6,1.1-2l1.9-1.1C14,8,15.3,8.4,15.9,9.4c0.6,1.1,0.3,2.4-0.8,3.1l-1.9,1.1c-0.8,0.5-1.7,0.4-2.4-0.1L8,15.1v6.5c1.7,0.4,3,2,3,3.9h2c0,0,0,0,0-0.1c0.1-4.3,1-7.3,2.8-8.7c1.4-1.1,3.1-2,5.2-2.7v-1.3c-1.2-1.2-2-3-2-4.9c0-3.7,0.7-7.2,6-7.2s6,3.6,6,7.2c0,2-0.8,3.7-2,4.9v1.5c1.8,0.7,3.2,1.5,4.4,2.6c1.6,1.5,2.5,4.4,2.6,8.7c0,0,0,0,0,0.1h9c1.7,0,3,1.3,3,3v1c0,1.7-1.3,3-3,3h-5v14c0,0.6-0.4,1-1,1H10z M11,45.5h27v-13H11V45.5z M3,27.5c-0.6,0-1,0.4-1,1v1c0,0.6,0.4,1,1,1h42c0.6,0,1-0.4,1-1v-1c0-0.6-0.4-1-1-1H11H3z M28.5,16.1c-1.2,0.9-2.3,1.4-3.5,1.4c-1.2,0-2.4-0.5-3.6-1.5c-1.8,0.6-3.2,1.4-4.4,2.3c-1.2,1-2,3.4-2.1,7.2l10,0l9.1,0c-0.1-3.8-0.8-6.3-1.9-7.3C31.1,17.4,29.9,16.7,28.5,16.1z M5,25.5h4c0-1.1-0.9-2-2-2S5,24.4,5,25.5z M11.9,11.5c-0.1,0.1-0.2,0.2-0.1,0.3c0.1,0.1,0.2,0.2,0.3,0.1l1.9-1.1c0.1-0.1,0.2-0.2,0.1-0.3c-0.1-0.1-0.2-0.2-0.3-0.1L11.9,11.5z"/>
	</g>
</svg>
