<svg xmlns="http://www.w3.org/2000/svg" viewBox="0 0 48 48"><path d="M25 15.5c.6 0 1.3-.3 2-.8v-2.9l.6-.6c.9-.9 1.4-2.1 1.4-3.5 0-3.9-.8-5.2-4-5.2s-4 1.3-4 5.2c0 1.4.5 2.6 1.4 3.5l.6.6v2.9c.7.5 1.4.8 2 .8zm-15 32c-.6 0-1-.4-1-1v-14H3c-1.7 0-3-1.3-3-3v-1c0-1.7 1.3-3 3-3 0-1.9 1.3-3.4 3-3.9v-7.1c0-.4.2-.7.5-.9l3.3-1.9c0-.8.4-1.6 1.1-2l1.9-1.1c1.2-.6 2.5-.2 3.1.8.6 1.1.3 2.4-.8 3.1l-1.9 1.1c-.8.5-1.7.4-2.4-.1L8 15.1v6.5c1.7.4 3 2 3 3.9h2v-.1c.1-4.3 1-7.3 2.8-8.7 1.4-1.1 3.1-2 5.2-2.7v-1.3c-1.2-1.2-2-3-2-4.9 0-3.7.7-7.2 6-7.2s6 3.6 6 7.2c0 2-.8 3.7-2 4.9v1.5c1.8.7 3.2 1.5 4.4 2.6 1.6 1.5 2.5 4.4 2.6 8.7v.1h9c1.7 0 3 1.3 3 3v1c0 1.7-1.3 3-3 3h-5v14c0 .6-.4 1-1 1H10zm1-2h27v-13H11v13zm-8-18c-.6 0-1 .4-1 1v1c0 .6.4 1 1 1h42c.6 0 1-.4 1-1v-1c0-.6-.4-1-1-1H3zm25.5-11.4c-1.2.9-2.3 1.4-3.5 1.4-1.2 0-2.4-.5-3.6-1.5-1.8.6-3.2 1.4-4.4 2.3-1.2 1-2 3.4-2.1 7.2H34c-.1-3.8-.8-6.3-1.9-7.3-1-.8-2.2-1.5-3.6-2.1zM5 25.5h4c0-1.1-.9-2-2-2s-2 .9-2 2zm6.9-14c-.1.1-.2.2-.1.3.1.1.2.2.3.1l1.9-1.1c.1-.1.2-.2.1-.3-.1-.1-.2-.2-.3-.1l-1.9 1.1z"/></svg>