<svg xmlns="http://www.w3.org/2000/svg" viewBox="0 0 48 48"><path d="M23 24.9c0 .6-.4 1-1 1s-1-.4-1-1v-11c0-.6.4-1 1-1s1 .4 1 1v11zm0 8v11c0 2.2-1.8 4-4 4s-4-1.8-4-4v-11c0-.6.4-1 1-1s1 .4 1 1v11c0 1.1.9 2 2 2s2-.9 2-2v-11c0-.6.4-1 1-1s1 .5 1 1zm-16-16H5c-1.7 0-3 1.3-3 3s1.3 3 3 3h2v-6zm0 8H5c-2.8 0-5-2.2-5-5s2.2-5 5-5h2v-1c0-2.8 2.2-5 5-5h10.8c3 0 5.9-1 8.2-2.9L37.7.5c.9-.7 2.1-.6 2.8.3.3.3.5.8.5 1.3V15h2c2.8 0 5 2.2 5 5s-2.2 5-5 5h-2v12.5c0 1.1-.9 2-2 2-.5 0-1-.2-1.3-.5l-6.6-5.8c-2.4-2.1-5.4-3.2-8.6-3.2H12c-2.8-.1-5-2.3-5-5.1zm34-2h2c1.7 0 3-1.3 3-3s-1.3-3-3-3h-2v6zm-29-12c-1.7 0-3 1.3-3 3v11c0 1.7 1.3 3 3 3h10.5c3.6 0 7.1 1.3 9.9 3.7l6.6 5.8V2.1l-6.7 5.5c-2.7 2.2-6 3.4-9.5 3.4H12z"/></svg>