<svg xmlns="http://www.w3.org/2000/svg" viewBox="0 0 48 48"><path d="M33 36.6h9c2.2 0 4-1.8 4-4v-26c0-2.2-1.8-4-4-4H6c-2.2 0-4 1.8-4 4v26c0 2.2 1.8 4 4 4h17.9l9.1 7.7v-7.7zm-10-11v-12c0-.6-.4-1-1-1s-1 .4-1 1v5h-7v-5c0-.6-.4-1-1-1s-1 .4-1 1v12c0 .6.4 1 1 1s1-.4 1-1v-5h7v5c0 .6.4 1 1 1s1-.5 1-1zm12 13v7.8c0 .2-.1.5-.2.6-.4.4-1 .5-1.4.1l-10.2-8.6H6c-3.3 0-6-2.7-6-6v-26c0-3.3 2.7-6 6-6h36c3.3 0 6 2.7 6 6v26c0 3.3-2.7 6-6 6h-7zm-6-13v-5h2.4l3.7 6h.6c.2 0 .4-.1.5-.2.5-.3.6-.9.3-1.4l-2.8-4.5c1.8-.4 3.2-2 3.2-3.9 0-2.2-1.8-4-4-4h-5c-.6 0-1 .4-1 1v12c0 .6.4 1 1 1s1.1-.5 1.1-1zm0-7v-4h4c1.1 0 2 .9 2 2s-.9 2-2 2h-4z"/></svg>