<svg xmlns="http://www.w3.org/2000/svg" viewBox="0 0 48 48"><path d="M46 29V7c0-2.2-1.8-4-4-4H6C3.8 3 2 4.8 2 7v34c0 2.2 1.8 4 4 4h36c2.2 0 4-1.8 4-4v-2c0-.6.4-1 1-1s1 .4 1 1v2c0 3.3-2.7 6-6 6H6c-3.3 0-6-2.7-6-6V7c0-3.3 2.7-6 6-6h36c3.3 0 6 2.7 6 6v22c0 .6-.4 1-1 1s-1-.4-1-1zm-26.7-5.6L7.7 34.7c-.4.4-1 .4-1.4 0-.4-.4-.4-1 0-1.4l12.3-12c.4-.4 1-.4 1.4 0l9.8 9.6 4.6-4.5c.4-.4 1-.4 1.4 0l7 6.9c.4.4.4 1 0 1.4-.4.4-1 .4-1.4 0L35 28.5 30.4 33c-.4.4-1 .4-1.4 0l-9.7-9.6zM31 19c-2.2 0-4-1.8-4-4s1.8-4 4-4 4 1.8 4 4-1.8 4-4 4zm0-2c1.1 0 2-.9 2-2s-.9-2-2-2-2 .9-2 2 .9 2 2 2z"/></svg>