<svg xmlns="http://www.w3.org/2000/svg" viewBox="0 0 48 48">
	<g>
		<path d="M25,45h17c2.2,0,4-1.8,4-4V29H25V45z M23,45V29H2v12c0,2.2,1.8,4,4,4H23z M46,27V14H6c-0.6,0-1-0.4-1-1s0.4-1,1-1h41c0.6,0,1,0.4,1,1v28c0,3.3-2.7,6-6,6H6c-3.3,0-6-2.7-6-6V7c0-3.3,2.7-6,6-6h36c3.3,0,6,2.7,6,6v1c0,0.6-0.4,1-1,1s-1-0.4-1-1V7c0-2.2-1.8-4-4-4H6C3.8,3,2,4.8,2,7v20H46z M6.5,9C5.7,9,5,8.3,5,7.5S5.7,6,6.5,6S8,6.7,8,7.5S7.3,9,6.5,9z M11.5,9C10.7,9,10,8.3,10,7.5S10.7,6,11.5,6S13,6.7,13,7.5S12.3,9,11.5,9z M16.5,9C15.7,9,15,8.3,15,7.5S15.7,6,16.5,6C17.3,6,18,6.7,18,7.5S17.3,9,16.5,9z M7,34h11c0.6,0,1,0.4,1,1s-0.4,1-1,1H7c-0.6,0-1-0.4-1-1S6.4,34,7,34z M7,38h11c0.6,0,1,0.4,1,1s-0.4,1-1,1H7c-0.6,0-1-0.4-1-1S6.4,38,7,38z"/>
	</g>
</svg>
