<svg xmlns="http://www.w3.org/2000/svg" viewBox="0 0 48 48"><path d="M25 45h17c2.2 0 4-1.8 4-4V29H25v16zm-2 0V29H2v12c0 2.2 1.8 4 4 4h17zm23-18V14H6c-.6 0-1-.4-1-1s.4-1 1-1h41c.6 0 1 .4 1 1v28c0 3.3-2.7 6-6 6H6c-3.3 0-6-2.7-6-6V7c0-3.3 2.7-6 6-6h36c3.3 0 6 2.7 6 6v1c0 .6-.4 1-1 1s-1-.4-1-1V7c0-2.2-1.8-4-4-4H6C3.8 3 2 4.8 2 7v20h44zM6.5 9C5.7 9 5 8.3 5 7.5S5.7 6 6.5 6 8 6.7 8 7.5 7.3 9 6.5 9zm5 0c-.8 0-1.5-.7-1.5-1.5S10.7 6 11.5 6s1.5.7 1.5 1.5S12.3 9 11.5 9zm5 0c-.8 0-1.5-.7-1.5-1.5S15.7 6 16.5 6s1.5.7 1.5 1.5S17.3 9 16.5 9zM7 34h11c.6 0 1 .4 1 1s-.4 1-1 1H7c-.6 0-1-.4-1-1s.4-1 1-1zm0 4h11c.6 0 1 .4 1 1s-.4 1-1 1H7c-.6 0-1-.4-1-1s.4-1 1-1z"/></svg>