<svg xmlns="http://www.w3.org/2000/svg" viewBox="0 0 48 48"><path d="M.4 3.4c0-1.7 1.3-3 3-3h17.3c1.3 0 2.6.5 3.5 1.5l22.4 22.4c1.2 1.2 1.2 3.1 0 4.2L28.5 46.7c-1.2 1.2-3 1.2-4.2 0L2 25.3C1 24.4.5 23.1.5 21.7V3.4zm2 0v18.3c0 .8.3 1.6.9 2.2l22.4 21.5c.4.4 1 .4 1.4 0l18.2-18.2c.4-.4.4-1 0-1.4L22.9 3.3c-.6-.6-1.3-.9-2.1-.9H3.4c-.5 0-1 .4-1 1z"/><path d="M27.2 22.2c1.1-1.1 2.6-1.8 4.3-1.8 3.3 0 6 2.7 6 6 0 1.6-.6 3.1-1.8 4.2l-8.5 8.5c-.4.4-1 .4-1.4 0-.4-.4-.4-1 0-1.4l8.5-8.5c.7-.7 1.2-1.8 1.2-2.8 0-2.2-1.7-4-4-4-1.1 0-2.1.4-2.8 1.2L27.2 25c-.4.4-1 .4-1.4 0l-1.5-1.5c-.7-.7-1.7-1.2-2.8-1.2-2.2 0-4 1.8-4 4 0 1.1.4 2.1 1.2 2.8 1.4 1.3 2.5 2.5 3.6 3.5.4.4.4 1 0 1.4s-1 .4-1.4 0c-1-1-2.2-2.2-3.6-3.5-1.1-1.1-1.7-2.6-1.7-4.2 0-3.3 2.7-6 6-6 1.6 0 3.1.6 4.2 1.7l.8.8.6-.6zM8.4 10.4c-1.1 0-2-.9-2-2s.9-2 2-2 2 .9 2 2-.9 2-2 2z"/></svg>