<svg width="37" height="37" xmlns="http://www.w3.org/2000/svg" viewBox="0 0 37 37"><g fill="#fff"><path fill-opacity=".3" d="M5 8c-2.2 0-4 1.8-4 4v20c0 2.2 1.8 4 4 4h20c2.2 0 4-1.8 4-4V12c0-2.2-1.8-4-4-4H5zm0-1h20c2.8 0 5 2.2 5 5v20c0 2.8-2.2 5-5 5H5c-2.8 0-5-2.2-5-5V12c0-2.8 2.2-5 5-5z"/><path fill-opacity=".3" d="M12 1C9.8 1 8 2.8 8 5v20c0 2.2 1.8 4 4 4h20c2.2 0 4-1.8 4-4V5c0-2.2-1.8-4-4-4H12zm0-1h20c2.8 0 5 2.2 5 5v20c0 2.8-2.2 5-5 5H12c-2.8 0-5-2.2-5-5V5c0-2.8 2.2-5 5-5z"/><path d="M16 15.4l1.4-1.4 4.7 4.7-4.7 4.7L16 22l3.3-3.3z"/></g></svg>