<svg width="37" height="37" xmlns="http://www.w3.org/2000/svg" viewBox="0 0 37 37">
	<g>
		<path fill="#ffffff" fill-opacity="0.3" d="M5,8c-2.2,0-4,1.8-4,4v20c0,2.2,1.8,4,4,4h20c2.2,0,4-1.8,4-4V12c0-2.2-1.8-4-4-4H5z M5,7h20
			c2.8,0,5,2.2,5,5v20c0,2.8-2.2,5-5,5H5c-2.8,0-5-2.2-5-5V12C0,9.2,2.2,7,5,7z"/>
		<path fill="#ffffff" fill-opacity="0.3" d="M12,1C9.8,1,8,2.8,8,5v20c0,2.2,1.8,4,4,4h20c2.2,0,4-1.8,4-4V5c0-2.2-1.8-4-4-4H12z M12,0h20
			c2.8,0,5,2.2,5,5v20c0,2.8-2.2,5-5,5H12c-2.8,0-5-2.2-5-5V5C7,2.2,9.2,0,12,0z"/>
		<polygon fill="#ffffff" points="16,15.4 17.4,14 22.1,18.7 17.4,23.4 16,22 19.3,18.7"/>
	</g>
</svg>
