<svg xmlns="http://www.w3.org/2000/svg" viewBox="0 0 48 48"><path d="M14.5 16c-1.1 0-2 .9-2 2v26c0 1.1.9 2 2 2h29c1.1 0 2-.9 2-2V18c0-1.1-.9-2-2-2h-29zm20 13.8V31c0 .3-.3.7-1.1 1.1-1.1.6-2.7.9-4.4.9s-3.3-.3-4.4-.9c-.8-.4-1.1-.8-1.1-1.1v-1.2c1.4.8 3.3 1.2 5.5 1.2s4.1-.5 5.5-1.2zm2-2.8c0-2.4-3.4-4-7.5-4s-7.5 1.6-7.5 4v8h2v-1.2c1.4.8 3.3 1.2 5.5 1.2s4.1-.5 5.5-1.2V35h2v-8zm-31 5h-1c-2.2 0-4-1.8-4-4V4c0-2.2 1.8-4 4-4h29c2.2 0 4 1.8 4 4v3h1c2.2 0 4 1.8 4 4v3h1c2.2 0 4 1.8 4 4v26c0 2.2-1.8 4-4 4h-29c-2.2 0-4-1.8-4-4v-5h-1c-2.2 0-4-1.8-4-4v-3zm0-2V11c0-2.2 1.8-4 4-4h26V4c0-1.1-.9-2-2-2h-29c-1.1 0-2 .9-2 2v24c0 1.1.9 2 2 2h1zm35-16v-3c0-1.1-.9-2-2-2h-29c-1.1 0-2 .9-2 2v24c0 1.1.9 2 2 2h1V18c0-2.2 1.8-4 4-4h26zM29 29c-1.7 0-3.3-.3-4.4-.9-.8-.4-1.1-.8-1.1-1.1s.3-.7 1.1-1.1c1.1-.6 2.6-.9 4.4-.9s3.3.3 4.4.9c.8.4 1.1.8 1.1 1.1s-.3.7-1.1 1.1c-1.1.6-2.7.9-4.4.9zm-5.5 6h-2c0 2.4 3.4 4 7.5 4s7.5-1.6 7.5-4h-2c0 .3-.3.7-1.1 1.1-1.1.6-2.7.9-4.4.9s-3.3-.3-4.4-.9c-.8-.4-1.1-.8-1.1-1.1z"/></svg>