<svg xmlns="http://www.w3.org/2000/svg" viewBox="0 0 48 48">
	<g>
		<path d="M14.5,16c-1.1,0-2,0.9-2,2v26c0,1.1,0.9,2,2,2h29c1.1,0,2-0.9,2-2V18c0-1.1-0.9-2-2-2H14.5z M34.5,29.8V31c0,0.3-0.3,0.7-1.1,1.1C32.3,32.7,30.7,33,29,33s-3.3-0.3-4.4-0.9c-0.8-0.4-1.1-0.8-1.1-1.1v-1.2c1.4,0.8,3.3,1.2,5.5,1.2S33.1,30.5,34.5,29.8z M36.5,27c0-2.4-3.4-4-7.5-4s-7.5,1.6-7.5,4v8h2v-1.2c1.4,0.8,3.3,1.2,5.5,1.2s4.1-0.5,5.5-1.2V35h2V27z M5.5,32h-1c-2.2,0-4-1.8-4-4V4c0-2.2,1.8-4,4-4h29c2.2,0,4,1.8,4,4v3h1c2.2,0,4,1.8,4,4v3h1c2.2,0,4,1.8,4,4v26c0,2.2-1.8,4-4,4h-29c-2.2,0-4-1.8-4-4v-5h-1c-2.2,0-4-1.8-4-4V32z M5.5,30V11c0-2.2,1.8-4,4-4h26V4c0-1.1-0.9-2-2-2h-29c-1.1,0-2,0.9-2,2v24c0,1.1,0.9,2,2,2H5.5z M40.5,14v-3c0-1.1-0.9-2-2-2h-29c-1.1,0-2,0.9-2,2v24c0,1.1,0.9,2,2,2h1V18c0-2.2,1.8-4,4-4H40.5z M29,29c-1.7,0-3.3-0.3-4.4-0.9c-0.8-0.4-1.1-0.8-1.1-1.1s0.3-0.7,1.1-1.1c1.1-0.6,2.6-0.9,4.4-0.9s3.3,0.3,4.4,0.9c0.8,0.4,1.1,0.8,1.1,1.1s-0.3,0.7-1.1,1.1C32.3,28.7,30.7,29,29,29z M23.5,35h-2c0,2.4,3.4,4,7.5,4s7.5-1.6,7.5-4h-2c0,0.3-0.3,0.7-1.1,1.1C32.3,36.7,30.7,37,29,37s-3.3-0.3-4.4-0.9C23.8,35.7,23.5,35.3,23.5,35z"/>
	</g>
</svg>
