<svg xmlns="http://www.w3.org/2000/svg" viewBox="0 0 48 48">
	<g>
		<path d="M37.7,11.8h8.2c0.6,0,1.1,0.5,1.1,1.1c0,0.6-0.5,1.1-1.1,1.1H34V2.1c0-0.6,0.5-1.1,1.1-1.1c0.6,0,1.1,0.5,1.1,1.1v8.2l10-10c0.4-0.4,1.1-0.4,1.5,0c0.4,0.4,0.4,1.1,0,1.5L37.7,11.8z M24.9,34c0.6,0.2,0.8,0.8,0.6,1.4c-0.2,0.6-0.8,0.8-1.4,0.6c-0.4-0.2-0.8-0.4-1.3-0.6c-1.6-0.9-3.2-2.4-5.6-4.9c-6.1-6.3-7.4-9.5-3.7-13.1c0.9-0.8,1.3-1.3,1.5-1.6c0.4-0.7,0.2-1.2-2.8-5.2c-3.5-4.8-4-5-6.5-2.2c-6.4,6.2-4,14.2,7.4,26C24.4,46,32.7,48.8,39,42.7c2.8-2.3,2.6-2.8-2.1-6.5c-3.3-2.6-4.1-3.1-4.6-3.1c-0.3,0-0.7,0.2-1.4,0.9c-0.4,0.4-1.1,0.4-1.5-0.1c-0.4-0.4-0.4-1.1,0.1-1.5c1.1-1,1.8-1.4,2.7-1.5c1.4-0.1,2.2,0.4,6.1,3.5c5.6,4.4,6.2,6.4,2.2,9.8c-7.4,7.2-16.9,3.9-28.9-8.5C-0.6,23.2-3.4,14,4.2,6.8c3.6-4,5.6-3.3,9.8,2.5c3.6,4.9,4,5.7,2.9,7.5c-0.3,0.6-0.8,1.1-1.8,2.1c-2.5,2.4-1.6,4.5,3.7,10.1c2.3,2.4,3.9,3.8,5.2,4.6C24.3,33.7,24.6,33.9,24.9,34z"/>
	</g>
</svg>
