<svg xmlns="http://www.w3.org/2000/svg" viewBox="0 0 48 48">
	<g>
		<path d="M25,44.7c1.3-1.2,2.6-2.4,3.8-3.5c0.1-0.1,0.1-0.1,0.2-0.2c0.4-0.4,1-0.4,1.4,0.1c0.4,0.4,0.4,1-0.1,1.4c-0.1,0.1-0.1,0.1-0.2,0.2c-1.2,1.2-2.5,2.3-3.8,3.5c-0.4,0.4-0.9,0.8-1.2,1.2c-0.4,0.4-0.4,0.4-0.5,0.4c-0.4,0.4-1,0.4-1.4,0c-0.1-0.1-0.3-0.3-0.6-0.5c-0.4-0.4-0.9-0.9-1.4-1.4c-1.5-1.4-3-2.8-4.4-4.1c-0.1-0.1-0.1-0.1-0.3-0.2c-2.5-2.4-4.4-4.2-5.4-5.3c-4.7-5-7.3-10-7.3-15.7C4,9.2,12.9,0,24,0c11,0,20,9.2,20,20.4c0,6.1-3,11.6-8.4,17.1c-0.4,0.4-1,0.4-1.4,0c-0.4-0.4-0.4-1,0-1.4c5-5.2,7.8-10.2,7.8-15.7C42,10.3,33.9,2,24,2C14.1,2,6,10.3,6,20.4c0,5.1,2.3,9.7,6.7,14.4c1,1,2.8,2.9,5.3,5.2c0.1,0.1,0.1,0.1,0.3,0.2c1.4,1.3,2.9,2.7,4.4,4.1c0.5,0.4,0.9,0.9,1.3,1.2C24.3,45.3,24.7,45,25,44.7z M24,25c-2.8,0-5-2.2-5-5s2.2-5,5-5s5,2.2,5,5S26.8,25,24,25z M24,23c1.7,0,3-1.3,3-3s-1.3-3-3-3s-3,1.3-3,3S22.3,23,24,23z"/>
	</g>
</svg>
