<svg xmlns="http://www.w3.org/2000/svg" viewBox="0 0 48 48"><path d="M25 44.7c1.3-1.2 2.6-2.4 3.8-3.5l.2-.2c.4-.4 1-.4 1.4.1.4.4.4 1-.1 1.4l-.2.2c-1.2 1.2-2.5 2.3-3.8 3.5-.4.4-.9.8-1.2 1.2-.4.4-.4.4-.5.4-.4.4-1 .4-1.4 0-.1-.1-.3-.3-.6-.5l-1.4-1.4c-1.5-1.4-3-2.8-4.4-4.1-.1-.1-.1-.1-.3-.2-2.5-2.4-4.4-4.2-5.4-5.3-4.7-5-7.3-10-7.3-15.7C4 9.2 12.9 0 24 0c11 0 20 9.2 20 20.4 0 6.1-3 11.6-8.4 17.1-.4.4-1 .4-1.4 0-.4-.4-.4-1 0-1.4 5-5.2 7.8-10.2 7.8-15.7C42 10.3 33.9 2 24 2S6 10.3 6 20.4c0 5.1 2.3 9.7 6.7 14.4 1 1 2.8 2.9 5.3 5.2.1.1.1.1.3.2 1.4 1.3 2.9 2.7 4.4 4.1.5.4.9.9 1.3 1.2.3-.2.7-.5 1-.8zM24 25c-2.8 0-5-2.2-5-5s2.2-5 5-5 5 2.2 5 5-2.2 5-5 5zm0-2c1.7 0 3-1.3 3-3s-1.3-3-3-3-3 1.3-3 3 1.3 3 3 3z"/></svg>