<svg xmlns="http://www.w3.org/2000/svg" viewBox="0 0 48 48"><path d="M6.1 2C4 6.6 2.8 9.4 2.5 10.3 2.1 11.6 3.7 14 6.1 14c1.9 0 3.2-1.6 3.4-3.3V10c0-.6.4-1 1-1s1 .4 1 1v.7C11.8 12.4 13 14 15 14c2.2 0 3.5-2 3.5-4 0-.6.4-1 1-1s1 .4 1 1c0 2 1.3 4 3.5 4s3.5-2 3.5-4c0-.6.4-1 1-1s1 .4 1 1c0 2 1.3 4 3.5 4 2.1 0 3.3-1.8 3.5-3.6V10c0-.6.4-1 1-1s1 .4 1 1v.4c.1 1.9 1.4 3.6 3.5 3.6 2.3 0 4-2.4 3.6-3.7-.3-.9-1.7-3.7-4.1-8.3H6.1zm-.6-2h37v.1c.2.1.3.2.4.4 2.7 5.1 4.2 8.1 4.5 9.2.6 1.7-.3 3.8-2 5.1V43c0 .6-.4 1-1 1s-1-.4-1-1V15.8c-.5.1-1 .2-1.5.2-2 0-3.6-1-4.5-2.5C36.5 15 35 16 33 16c-2.1 0-3.6-1-4.5-2.5C27.5 15 26 16 24 16s-3.6-1-4.5-2.5C18.5 15 17 16 15 16s-3.5-1-4.5-2.4C9.6 15 8.1 16 6.1 16c-.6 0-1.1-.1-1.6-.2V43c0 .6-.4 1-1 1s-1-.4-1-1V15v-.3C.9 13.4.1 11.3.6 9.7c.3-1 1.7-4.1 3.9-9.1.2-.4.6-.6 1-.6zm-4 48c-.6 0-1-.4-1-1s.4-1 1-1h45c.6 0 1 .4 1 1s-.4 1-1 1h-45zm9-20h27c1.1 0 2 .9 2 2v10c0 1.1-.9 2-2 2h-27c-1.1 0-2-.9-2-2V30c0-1.1.9-2 2-2zm0 2v10h27V30h-27z"/></svg>