<svg xmlns="http://www.w3.org/2000/svg" viewBox="0 0 48 48">
	<g>
		<path d="M6.1,2C4,6.6,2.8,9.4,2.5,10.3C2.1,11.6,3.7,14,6.1,14c1.9,0,3.2-1.6,3.4-3.3c0-0.2,0-0.5,0-0.7c0-0.6,0.4-1,1-1c0,0,0,0,0,0c0,0,0,0,0,0c0.6,0,1,0.4,1,1c0,0.2,0,0.5,0,0.7C11.8,12.4,13,14,15,14c2.2,0,3.5-2,3.5-4c0-0.6,0.4-1,1-1s1,0.4,1,1c0,2,1.3,4,3.5,4s3.5-2,3.5-4c0-0.6,0.4-1,1-1s1,0.4,1,1c0,2,1.3,4,3.5,4c2.1,0,3.3-1.8,3.5-3.6c0-0.1,0-0.2,0-0.4c0-0.6,0.4-1,1-1c0,0,0,0,0,0c0,0,0,0,0,0c0.6,0,1,0.4,1,1c0,0.1,0,0.2,0,0.4c0.1,1.9,1.4,3.6,3.5,3.6c2.3,0,4-2.4,3.6-3.7c-0.3-0.9-1.7-3.7-4.1-8.3H6.1z M5.5,0H42c0,0,0,0,0,0l0.5,0v0.1c0.2,0.1,0.3,0.2,0.4,0.4c2.7,5.1,4.2,8.1,4.5,9.2c0.6,1.7-0.3,3.8-2,5.1c0,0.1,0,0.2,0,0.2v28c0,0.6-0.4,1-1,1s-1-0.4-1-1V15.8c-0.5,0.1-1,0.2-1.5,0.2c-2,0-3.6-1-4.5-2.5C36.5,15,35,16,33,16c-2.1,0-3.6-1-4.5-2.5C27.5,15,26,16,24,16s-3.6-1-4.5-2.5C18.5,15,17,16,15,16c-2,0-3.5-1-4.5-2.4C9.6,15,8.1,16,6.1,16c-0.6,0-1.1-0.1-1.6-0.2V43c0,0.6-0.4,1-1,1s-1-0.4-1-1V15c0-0.1,0-0.2,0-0.3c-1.6-1.3-2.4-3.4-1.9-5c0.3-1,1.7-4.1,3.9-9.1C4.7,0.2,5.1,0,5.5,0z M1.5,48c-0.6,0-1-0.4-1-1s0.4-1,1-1h45c0.6,0,1,0.4,1,1s-0.4,1-1,1H1.5z M10.5,28h27c1.1,0,2,0.9,2,2v10c0,1.1-0.9,2-2,2h-27c-1.1,0-2-0.9-2-2V30C8.5,28.9,9.4,28,10.5,28z M10.5,30v10h27V30H10.5z"/>
	</g>
</svg>
