<svg xmlns="http://www.w3.org/2000/svg" viewBox="0 0 48 48"><path d="M16 42.5v-2h22c1.1 0 2-.9 2-2v-23c0-1.1-.9-2-2-2H4c-1.1 0-2 .9-2 2v23c0 1.1.9 2 2 2h5v2H4c-2.2 0-4-1.8-4-4v-23c0-2.2 1.8-4 4-4h34c2.2 0 4 1.8 4 4v23c0 2.2-1.8 4-4 4H16zm4-14h-5c-.6 0-1-.4-1-1s.4-1 1-1h5v-5c0-.6.4-1 1-1s1 .4 1 1v5h5c.6 0 1 .4 1 1s-.4 1-1 1h-5v5c0 .6-.4 1-1 1s-1-.4-1-1v-5zm22 6h2c1.1 0 2-.9 2-2v-23c0-1.1-.9-2-2-2H8c-1.1 0-2 .9-2 2v2h32c2.2 0 4 1.8 4 4v19zm-38-23v-2c0-2.2 1.8-4 4-4h36c2.2 0 4 1.8 4 4v23c0 2.2-1.8 4-4 4h-2v2c0 2.2-1.8 4-4 4H16c-.6 0-1-.4-1-1s.4-1 1-1h22c1.1 0 2-.9 2-2v-23c0-1.1-.9-2-2-2H4c-1.1 0-2 .9-2 2v23c0 1.1.9 2 2 2h5c.6 0 1 .4 1 1s-.4 1-1 1H4c-2.2 0-4-1.8-4-4v-23c0-2.2 1.8-4 4-4z"/></svg>