<svg xmlns="http://www.w3.org/2000/svg" viewBox="0 0 48 48"><path d="M5.5 34H9v-9H5.5 6v9h-.5zM4 33.7v-8.3c-1.2.6-2 1.8-2 3.2v2c0 1.3.8 2.5 2 3.1zm0-10.5v-7.9C4 6.9 10.6 0 18.6 0h10.7C37.4 0 44 6.9 44 15.3v7.9c2.3.7 4 2.8 4 5.3v2c0 2.5-1.7 4.6-4 5.3 0 4.1-2.9 9.2-9.8 9.2H31c-.6 0-1-.4-1-1s.4-1 1-1h3.2c4.8 0 7.7-3.2 7.8-7h-4c-.6 0-1-.4-1-1V24c0-.6.4-1 1-1h4v-7.7C42 8 36.3 2 29.4 2H18.6C11.7 2 6 8 6 15.3V23h4c.6 0 1 .4 1 1v11c0 .6-.4 1-1 1H5.5c-3 0-5.5-2.5-5.5-5.5v-2c0-2.5 1.7-4.6 4-5.3zM42.5 25H39v9h3.5-.5v-9h.5zm1.5.3v8.3c1.2-.6 2-1.8 2-3.2v-2c0-1.3-.8-2.5-2-3.1zM24 48c-2.2 0-4-1.8-4-4s1.8-4 4-4 4 1.8 4 4-1.8 4-4 4zm0-2c1.1 0 2-.9 2-2s-.9-2-2-2-2 .9-2 2 .9 2 2 2z"/></svg>