<svg xmlns="http://www.w3.org/2000/svg" viewBox="0 0 48 48">
	<g>
		<path d="M5.5,34H9v-9H5.5H6v9H5.5z M4,33.7v-8.3c-1.2,0.6-2,1.8-2,3.2v2C2,31.9,2.8,33.1,4,33.7z M4,23.2v-7.9C4,6.9,10.6,0,18.6,0h10.7C37.4,0,44,6.9,44,15.3v7.9c2.3,0.7,4,2.8,4,5.3v2c0,2.5-1.7,4.6-4,5.3c0,4.1-2.9,9.2-9.8,9.2H31c-0.6,0-1-0.4-1-1s0.4-1,1-1h3.2c4.8,0,7.7-3.2,7.8-7h-4c-0.6,0-1-0.4-1-1V24c0-0.6,0.4-1,1-1h4v-7.7C42,8,36.3,2,29.4,2H18.6C11.7,2,6,8,6,15.3V23h4c0.6,0,1,0.4,1,1v11c0,0.6-0.4,1-1,1H5.5c-3,0-5.5-2.5-5.5-5.5v-2C0,26,1.7,23.9,4,23.2z M42.5,25H39v9h3.5H42v-9H42.5z M44,25.3v8.3c1.2-0.6,2-1.8,2-3.2v-2C46,27.1,45.2,25.9,44,25.3z M24,48c-2.2,0-4-1.8-4-4s1.8-4,4-4s4,1.8,4,4S26.2,48,24,48z M24,46c1.1,0,2-0.9,2-2s-0.9-2-2-2s-2,0.9-2,2S22.9,46,24,46z"/>
	</g>
</svg>
