<svg xmlns="http://www.w3.org/2000/svg" viewBox="0 0 48 48"><path d="M10.1 16.4c-1.1 0-2 .9-2 2v22c0 1.1.9 2 2 2H44c1.1 0 2-.9 2-2v-22c0-1.1-.9-2-2-2H10.1zm30.4-2c-.2-1.7-.5-4.1-.9-7-.1-1.1-1.1-1.9-2.2-1.7L3.8 9.8C2.7 9.9 1.9 10.9 2 12l2.7 21.8c.1.8.6 1.4 1.3 1.6v-17c0-2.2 1.8-4 4-4h30.5zm2 0H44c2.2 0 4 1.8 4 4v22c0 2.2-1.8 4-4 4H10.1c-2.2 0-4-1.8-4-4v-2.9c-.2 0-.4 0-.7-.1-1.4-.5-2.5-1.7-2.7-3.3L0 12.3c-.3-2.2 1.3-4.2 3.5-4.4l33.7-4.1c2.2-.3 4.2 1.3 4.4 3.5.4 2.9.7 5.3.9 7.1z"/><path d="M6.5 22.4h39.9v2H6.5z"/></svg>