<svg xmlns="http://www.w3.org/2000/svg" viewBox="0 0 48 48">
	<g>
		<path d="M10.1,16.4c-1.1,0-2,0.9-2,2v22c0,1.1,0.9,2,2,2H44c1.1,0,2-0.9,2-2v-22c0-1.1-0.9-2-2-2H10.1z M40.5,14.4c-0.2-1.7-0.5-4.1-0.9-7c-0.1-1.1-1.1-1.9-2.2-1.7L3.8,9.8C2.7,9.9,1.9,10.9,2,12l2.7,21.8c0.1,0.8,0.6,1.4,1.3,1.6c0,0,0,0,0,0V18.4c0-2.2,1.8-4,4-4H40.5z M42.5,14.4H44c2.2,0,4,1.8,4,4v22c0,2.2-1.8,4-4,4H10.1c-2.2,0-4-1.8-4-4v-2.9c-0.2,0-0.4,0-0.7-0.1c-1.4-0.5-2.5-1.7-2.7-3.3L0,12.3c-0.3-2.2,1.3-4.2,3.5-4.4l33.7-4.1c2.2-0.3,4.2,1.3,4.4,3.5C42,10.2,42.3,12.6,42.5,14.4z"/>
		<rect x="6.5" y="22.4" width="39.9" height="2"/>
	</g>
</svg>
