<svg xmlns="http://www.w3.org/2000/svg" viewBox="0 0 48 48">
	<g>
		<path d="M29,37v-2h15c1.1,0,2-0.9,2-2V5c0-1.1-0.9-2-2-2H4C2.9,3,2,3.9,2,5v28c0,1.1,0.9,2,2,2h20v2H4c-2.2,0-4-1.8-4-4V5c0-2.2,1.8-4,4-4h40c2.2,0,4,1.8,4,4v28c0,2.2-1.8,4-4,4H29z M29,35h15c1.1,0,2-0.9,2-2V5c0-1.1-0.9-2-2-2H4C2.9,3,2,3.9,2,5v28c0,1.1,0.9,2,2,2h20c0.6,0,1,0.4,1,1v6c0,0.6-0.4,1-1,1s-1-0.4-1-1v-5H4c-2.2,0-4-1.8-4-4V5c0-2.2,1.8-4,4-4h40c2.2,0,4,1.8,4,4v28c0,2.2-1.8,4-4,4H29c-0.6,0-1-0.4-1-1S28.4,35,29,35z M15,45h19c0.6,0,1,0.4,1,1s-0.4,1-1,1H15c-0.6,0-1-0.4-1-1S14.4,45,15,45z M14,15h20c2.8,0,5,2.2,5,5s-2.2,5-5,5H14c-2.8,0-5-2.2-5-5S11.2,15,14,15z M14,17c-1.7,0-3,1.3-3,3s1.3,3,3,3h20c1.7,0,3-1.3,3-3s-1.3-3-3-3H14z"/>
		<path d="M14,19h15c0.6,0,1,0.4,1,1s-0.4,1-1,1H14c-0.6,0-1-0.4-1-1S13.4,19,14,19z"/>
	</g>
</svg>
