<svg xmlns="http://www.w3.org/2000/svg" viewBox="0 0 48 48">
	<g>
		<path d="M30,34h10c3.3,0,6-2.8,6-6.2s-2.7-6.2-6-6.2c0,0-0.5,0-1.3,0l0.2-1.2c0.1-0.6,0.1-1.3,0.1-1.9C39,11,33.2,5,26,5c-5.1,0-9.7,3.1-11.8,7.8l-0.3,0.7l-0.7-0.1c-0.4,0-0.8-0.1-1.2-0.1c-5.5,0-10,4.6-10,10.4S6.5,34,12,34h6c0.6,0,1,0.4,1,1s-0.4,1-1,1h-6C5.4,36,0,30.5,0,23.6s5.4-12.4,12-12.4c0.2,0,0.5,0,0.7,0C15.3,6.3,20.3,3,26,3c8.3,0,15,6.9,15,15.5c0,0.4,0,0.8,0,1.1c4,0.5,7,4,7,8.2c0,4.5-3.6,8.2-8,8.2H30c-0.6,0-1-0.4-1-1S29.4,34,30,34z M25,23.4V44c0,0.6-0.4,1-1,1s-1-0.4-1-1V23.4l-3.3,3.3c-0.4,0.4-1,0.4-1.4,0c-0.4-0.4-0.4-1,0-1.4l5.7-5.7l5.7,5.7c0.4,0.4,0.4,1,0,1.4c-0.4,0.4-1,0.4-1.4,0L25,23.4z"/>
	</g>
</svg>
