<svg xmlns="http://www.w3.org/2000/svg" viewBox="0 0 48 48">
	<g>
		<path d="M4,12.8c-1.1,0-2,0.9-2,2v26c0,1.1,0.9,2,2,2h40c1.1,0,2-0.9,2-2v-26c0-1.1-0.9-2-2-2H4z M39.6,7l-1,0.2c0-0.1,0-0.1,0-0.2c-0.1-1.1-1-1.9-1.9-1.8L3.9,9.4C3,9.5,2.2,10.4,2,11.3c0.6-0.3,1.3-0.5,2-0.5h40c2.2,0,4,1.8,4,4v26c0,2.2-1.8,4-4,4H4c-2.2,0-4-1.8-4-4v-26v-2.8c-0.2-2.2,1.7-4.3,3.7-4.5l32.7-4.1c2.1-0.2,3.9,1.4,4.1,3.6L39.6,7l-1,0.2c0-0.1,0-0.1,0-0.2c-0.1-1.1-1-1.9-1.9-1.8L3.9,9.4c-1,0.1-2,1.3-1.9,2.4l0,0.2v2.4l-2,0.4v-2.8c-0.2-2.2,1.7-4.3,3.7-4.5l32.7-4.1c2.1-0.2,3.9,1.4,4.1,3.6L39.6,7z"/>
	</g>
</svg>
