<svg xmlns="http://www.w3.org/2000/svg" viewBox="0 0 91 76">
	<style type="text/css">
		.st0{fill:#017E6F;}
		.st1{fill:#0FC3AD;}
		.st2{fill:#0E9585;}
	</style>
	<g>
		<path class="st0" d="M67.6,56.4c1.6-1.6,1.3-4.7-1-9c-0.8-1.5-1.8-3-3-4.6c5.5-1.8,12.8-3.1,21.3-2c0.6,0.1,1.1-0.3,1.1-0.9c0.1-0.6-0.3-1.1-0.9-1.1c-9.3-1.1-17,0.3-22.8,2.3c-1.6-2-3.4-4-5.3-6c-3.2-3.2-6.5-5.9-9.6-7.9c0.2-5.9-0.2-11.1-1.7-13.6c-1.6-2.7-3.5-3.1-4.8-2.9c-2.9,0.5-5.2,4.1-6,7.4c-0.1,0.5,0.2,1.1,0.8,1.2c0.5,0.1,1.1-0.2,1.2-0.8c0.7-3,2.6-5.6,4.3-5.9c1-0.1,1.9,0.5,2.8,1.9c0.7,1.2,1.6,4.2,1.5,11.4c-2.8-1.6-5.2-2.5-7.1-2.5c-1.2,0-2.1,0.3-2.7,1c-0.3,0.3-0.5,0.7-0.7,1.1h-0.1c0,0-12.1,31.7-13.7,35.9L21,61.8c-3.1,8.1-4.2,11.9-2.6,13.3c0,0,0.1,0,0.1,0.1c0.4,0.3,1,0.5,1.8,0.5c2,0,5.6-1.1,11.6-3.6c3.8-1.6,33.6-14.6,33.9-14.7l0.1-0.1C66.6,57.1,67.2,56.9,67.6,56.4z M64.8,48.4c2,3.8,2,5.9,1.4,6.6c-0.3,0.3-0.7,0.4-1.3,0.4c-2.8,0-7.7-2.7-12.7-7c1.3-1,4.6-3.1,9.5-4.9C62.9,45.2,64,46.9,64.8,48.4z M55.6,36.5c1.8,1.8,3.3,3.5,4.8,5.3c-5.3,2.1-8.7,4.4-9.7,5.3c-1-0.9-1.9-1.8-2.9-2.7c-0.6-0.6-1.1-1.2-1.7-1.8c0.6-4.2,1-8.7,1.3-13.1C49.8,31.2,52.6,33.5,55.6,36.5z M38.3,25.4c1.5,0,4,0.9,7,2.8c-0.1,3.3-0.5,7.4-1.1,12.4c-6.4-7.4-8.6-13.3-7.2-14.8C37.3,25.6,37.7,25.4,38.3,25.4z M31.1,70.2c-9,3.7-10.9,3.6-11.3,3.4l-0.1-0.1c-0.5-1.3,2.1-8.1,3.2-11l0.2-0.4c1.2-3.3,8.9-23.3,12.1-31.9c1.3,3.9,4.8,8.9,8.9,13.4l0,0c0.7,0.8,1.4,1.5,2.1,2.2c5.6,5.6,11.4,9.6,15.7,11C54.3,60.2,34.2,69,31.1,70.2z"/>
		<path class="st1" d="M67.2,27.9c-0.6-2.8-1.6-7,2.1-9.2c2.8-1.7,4.8,1.1,6.3,3.1c0.9,1.2,1.8,2.5,2.6,2.6c0.1,0,0.4,0,0.8-0.3c1.4-1.2,0.6-2.7-0.8-5.2c-1.1-1.8-2.2-3.7-1.2-5.3c1.3-1.9,3.3-0.7,4.5,0.1c1.7,1.1,3,1.7,4.3,0.7c0.9-0.7,1.4-1.5,1.5-2.7c0.3-2.4-1-5.3-2.3-7c-0.3-0.4-0.3-1.1,0.2-1.4C85.6,3,86.3,3,86.6,3.5c1.6,2.1,3.1,5.6,2.7,8.5c-0.2,1.7-1,3-2.3,4c-2.5,1.9-5,0.4-6.6-0.6c-1.5-0.9-1.7-0.9-1.8-0.7c-0.3,0.5,0.5,1.9,1.2,3.1c1.4,2.3,3.3,5.4,0.4,7.8c-0.8,0.6-1.5,0.9-2.4,0.8c-1.6-0.2-2.8-1.8-4-3.4c-1.8-2.5-2.6-3.2-3.7-2.6c-2.2,1.3-1.9,3.8-1.1,7c0.2,1,0.4,1.9,0.4,2.6c0,0.6-0.5,1-1,1s-1-0.5-1-1C67.6,29.6,67.4,28.8,67.2,27.9z M22.1,22.3C19,22.9,15.4,23.6,14,21c-0.5-1-0.4-1.7-0.2-2.2c0.6-1.6,2.9-2.4,5-3.1c1.1-0.4,3.1-1,3.2-1.5c-0.1-1.2-2.3-2.5-4.3-3.6c-1.1-0.7-2.3-1.4-3.2-2.1c-1.2-1-1.4-2.1-1.2-2.9c0.4-2.9,4.8-4.9,6.2-5.5c0.5-0.2,1.1,0,1.3,0.5c0.2,0.5,0,1.1-0.5,1.3c-2.8,1.2-4.8,2.8-5,3.9c0,0.1-0.1,0.5,0.5,1c0.8,0.6,1.9,1.3,3,1.9c2.5,1.5,5.1,3,5.3,5.3c0.1,1.9-2.2,2.7-4.6,3.5c-1.4,0.5-3.5,1.2-3.8,1.9c0,0.1-0.1,0.2,0.1,0.5c0.7,1.3,3.3,0.8,5.9,0.3c2.8-0.5,5.7-1.1,7.2,0.6c1.9,2.3-0.2,5.6-2,8.2c-0.8,1.1-1.6,2.4-1.7,3.1c-0.1,0.5-0.5,0.9-1,0.9h-0.1c-0.6-0.1-0.9-0.6-0.9-1.1c0.1-1.1,1-2.4,2.1-4c1.4-2,3.1-4.6,2.1-5.7C26.6,21.4,24.2,21.9,22.1,22.3z"/>
		<path class="st1" d="M49.9,7c0-1.3,1-2.3,2.3-2.3s2.3,1,2.3,2.3s-1,2.3-2.3,2.3S49.9,8.3,49.9,7zM72.4,5.7c0-1.3,1-2.3,2.3-2.3c1.3,0,2.3,1,2.3,2.3S76,8,74.7,8C73.4,8,72.4,6.9,72.4,5.7z M22.5,42.9c0,1.3-1,2.3-2.3,2.3c-1.3,0-2.3-1-2.3-2.3s1-2.3,2.3-2.3C21.5,40.6,22.5,41.6,22.5,42.9z M34.6,51.1c0,1.3-1,2.3-2.3,2.3s-2.3-1-2.3-2.3s1-2.3,2.3-2.3S34.6,49.8,34.6,51.1z M70.7,63.2c0,1.3-1,2.3-2.3,2.3c-1.3,0-2.3-1-2.3-2.3s1-2.3,2.3-2.3C69.7,60.9,70.7,61.9,70.7,63.2z M2.3,42.7c-1.3,0-2.3-1-2.3-2.3c0.1-1.2,1.1-2.2,2.3-2.2c1.3,0,2.3,1,2.3,2.3C4.6,41.7,3.6,42.7,2.3,42.7z M5.5,58.6c0,1.3-1,2.3-2.3,2.3s-2.3-1-2.3-2.3s1-2.3,2.3-2.3S5.5,57.4,5.5,58.6z M85.5,67.7c0,1.3-1,2.3-2.3,2.3c-1.3,0-2.3-1-2.3-2.3c0-1.3,1-2.3,2.3-2.3C84.5,65.4,85.5,66.5,85.5,67.7z M29.6,10.4c0-1.3,1-2.3,2.3-2.3c1.3,0,2.3,1,2.3,2.3s-1,2.3-2.3,2.3C30.6,12.7,29.6,11.6,29.6,10.4z"/>
		<path class="st2" d="M56,16.9c1.3,0,2.3,1,2.3,2.3c0,1.3-1,2.3-2.3,2.3s-2.3-1-2.3-2.3C53.7,17.9,54.8,16.9,56,16.9z M77.9,50.6c0,1.3-1,2.3-2.3,2.3c-1.3,0-2.3-1-2.3-2.3s1-2.3,2.3-2.3C76.9,48.3,77.9,49.3,77.9,50.6z M90.2,47.3c0,1.3-1,2.3-2.3,2.3c-1.3,0-2.3-1-2.3-2.3c0-1.3,1-2.3,2.3-2.3C89.2,45,90.2,46,90.2,47.3z"/>
	</g>
</svg>
