<svg xmlns="http://www.w3.org/2000/svg" viewBox="0 0 103 52">
<style type="text/css">
	.st0{fill:#4740E3;}
	.st1{fill:#00E0B4;}
	.st2{fill:#00B8C0;}
	.st3{fill:#FFFFFF;}
</style>
<g>
	<path class="st0" d="M39,10h61c1.7,0,3,1.3,3,3v36c0,1.7-1.3,3-3,3H39c-1.7,0-3-1.3-3-3V13C36,11.3,37.3,10,39,10z"/>
	<path class="st1" d="M3,0h61c1.7,0,3,1.3,3,3v36c0,1.7-1.3,3-3,3H3c-1.7,0-3-1.3-3-3V3C0,1.3,1.3,0,3,0z"/>
	<path class="st2" d="M39,10h28v29c0,1.7-1.3,3-3,3H36V13C36,11.3,37.3,10,39,10z"/>
	<path class="st3" d="M28.5,19.8c0-0.5,0.3-0.8,0.8-0.8h0.9c0.5,0,0.8,0.3,0.8,0.8v11.8c0,0.5-0.3,0.8-0.8,0.8h-0.9c-0.5,0-0.8-0.3-0.8-0.8V19.8z"/>
	<path class="st3" d="M39.8,25.8c0-1,0.2-1.9,0.5-2.8c0.3-0.9,0.8-1.6,1.4-2.2s1.3-1.1,2.2-1.5s1.7-0.5,2.7-0.5c0.5,0,1.1,0,1.5,0.1s0.9,0.2,1.3,0.3c0.4,0.1,0.7,0.3,1,0.4s0.5,0.3,0.6,0.4c0.4,0.3,0.4,0.7,0.2,1.1l-0.3,0.5c-0.1,0.2-0.3,0.3-0.5,0.4c-0.2,0-0.4,0-0.6-0.2c-0.3-0.2-0.7-0.4-1.2-0.5c-0.5-0.2-1.1-0.3-1.8-0.3c-0.7,0-1.4,0.1-1.9,0.4c-0.6,0.2-1,0.6-1.4,1s-0.7,0.9-0.9,1.5c-0.2,0.6-0.3,1.2-0.3,1.8c0,0.7,0.1,1.3,0.3,1.9s0.5,1.1,0.9,1.5c0.4,0.4,0.9,0.7,1.4,1c0.5,0.2,1.1,0.3,1.7,0.3c0.6,0,1-0.1,1.5-0.2c0.4-0.2,0.8-0.3,1.1-0.5c0.3-0.2,0.6-0.5,0.8-0.7c0-0.6,0-1,0-1.2c0-0.1,0-0.4,0-0.6h-2.2c-0.5,0-0.8-0.3-0.8-0.8v-0.5c0-0.5,0.3-0.8,0.8-0.8h3.6c0.5,0,0.8,0.3,0.8,0.8c0,0.3,0,0.7,0,1.3c0,0.8-0.1,2.1-0.1,2.4c-0.2,0.9-1.2,1.7-1.7,2s-1,0.6-1.6,0.8c-0.6,0.2-1.8,0.4-2.5,0.4c-0.9,0-1.7-0.2-2.5-0.5c-0.8-0.3-1.5-0.8-2.1-1.4s-1.1-1.3-1.4-2.2C40,27.7,39.8,26.8,39.8,25.8z"/>
	<path class="st3" d="M59.8,19.8c0-0.5,0.3-0.8,0.8-0.8h0.9c0.5,0,0.8,0.3,0.8,0.8v11.8c0,0.5-0.3,0.8-0.8,0.8h-0.9c-0.5,0-0.8-0.3-0.8-0.8V19.8z"/>
	<path class="st3" d="M71.9,19.8c0-0.5,0.3-0.8,0.8-0.8h6.1c0.5,0,0.8,0.3,0.8,0.8v0.5c0,0.5-0.3,0.8-0.8,0.8h-4.4v3.8h3.6c0.5,0,0.8,0.3,0.8,0.8v0.5c0,0.5-0.3,0.8-0.8,0.8h-3.6v4.6c0,0.5-0.3,0.8-0.8,0.8h-0.9c-0.5,0-0.8-0.3-0.8-0.8V19.8z"/>
	<path class="st3" d="M89.5,21.1h-3.6c-0.5,0-0.8-0.3-0.8-0.8v-0.5c0-0.5,0.3-0.8,0.8-0.8h9.5c0.5,0,0.8,0.3,0.8,0.8v0.5c0,0.5-0.3,0.8-0.8,0.8h-3.6v10.5c0,0.5-0.3,0.8-0.8,0.8h-0.8c-0.5,0-0.8-0.3-0.8-0.8V21.1z"/>
	<path class="st3" d="M9.7,19.8c0-0.5,0.3-0.8,0.8-0.8h3.8c1,0,1.9,0.2,2.8,0.5s1.5,0.7,2.1,1.3c0.6,0.6,1,1.3,1.4,2.1c0.3,0.8,0.5,1.8,0.5,2.8c0,1.1-0.2,2-0.5,2.8c-0.3,0.8-0.8,1.5-1.4,2.1c-0.6,0.6-1.3,1-2.1,1.3s-1.8,0.5-2.8,0.5h-3.8c-0.5,0-0.8-0.3-0.8-0.8V19.8z M14.1,30.3c1.3,0,2.4-0.4,3.2-1.2c0.8-0.8,1.2-1.9,1.2-3.4c0-0.7-0.1-1.4-0.3-2c-0.2-0.6-0.5-1-0.9-1.4c-0.4-0.4-0.8-0.7-1.4-0.9c-0.5-0.2-1.1-0.3-1.8-0.3h-2v9.2H14.1z"/>
</g>
</svg>
