<svg xmlns="http://www.w3.org/2000/svg" viewBox="0 0 48 48">
	<g>
		<path d="M48,27.3L48,27.3l0,5.3v5.7c0,3.4-5,5.7-11,5.7s-11-2.3-11-5.7v-5.7v-5.3h0c0.4-3.1,5.2-5.3,11-5.3S47.6,24.2,48,27.3z M28,31.1V33c0,1.8,4,3.7,9,3.7s9-1.9,9-3.7v-1.9c-2,1.5-5.3,2.3-9,2.3S30,32.5,28,31.1z M46,36.4c-2,1.5-5.3,2.3-9,2.3s-7-0.9-9-2.3v1.9c0,1.8,4,3.7,9,3.7s9-1.9,9-3.7V36.4z M46,13H2v20c0,1.1,0.9,2,2,2h17c0.6,0,1,0.4,1,1s-0.4,1-1,1H4c-2.2,0-4-1.8-4-4V7c0-2.2,1.8-4,4-4h40c2.2,0,4,1.8,4,4v12c0,0.6-0.4,1-1,1s-1-0.4-1-1V13z M46,11V7c0-1.1-0.9-2-2-2H4C2.9,5,2,5.9,2,7v4H46z M37,31.4c5,0,9-1.9,9-3.7c0-1.8-4-3.7-9-3.7s-9,1.9-9,3.7C28,29.5,32,31.4,37,31.4z"/>
	</g>
</svg>
