<svg xmlns="http://www.w3.org/2000/svg" viewBox="0 0 48 48">
	<g>
		<path d="M36.4,32.9l-7-4.3l5.2,6.5L36.4,32.9z M37.9,33.8l-2.1,2.7l2.3,2.8l4.5-2.7L37.9,33.8z M29.4,44.5l7.1-4.2l-1.9-2.3L29.4,44.5z M27.7,43.8l5.8-7.3l-5.8-7.3V43.8z M25.9,25.8c0-0.2,0-0.3,0.1-0.4c0.2-0.4,0.7-0.5,1.1-0.3L44.8,36c0.1,0.1,0.2,0.2,0.3,0.3c0.2,0.4,0.1,0.9-0.3,1.1L27.1,47.9C27,48,26.9,48,26.7,48c-0.4,0-0.8-0.4-0.8-0.8V25.8z"/>
		<path d="M21.9,9.7c-1.4,1-2.3,2.6-2.3,4.4c0,2,1.1,3.7,2.7,4.7c-0.1,0.2-0.1,0.3-0.2,0.5c-0.2,0.6-0.7,1.7-1.5,2.8c-1,1.4-2,2.9-3.7,2.9c-1.6,0-2.1-0.9-4-0.9c-1.8,0-2.4,0.9-3.9,1c-1.6,0.1-2.8-1.5-3.8-3C3.2,19,1.7,13.7,3.8,10.1c1.1-1.8,2.9-2.9,5-2.9c1.6,0,3,1,4,1c0.9,0,2.7-1.3,4.6-1.1c0.7,0,2.4,0.2,3.7,1.5c0.2,0.2,0.4,0.4,0.5,0.5C21.7,9.4,21.8,9.5,21.9,9.7z M17.2,8.9L17.2,8.9c-0.6-0.1-1.2,0.1-2.1,0.4c-0.1,0-0.6,0.2-0.5,0.2c-0.2,0.1-0.4,0.1-0.5,0.2c-0.5,0.2-0.9,0.3-1.4,0.3c-0.4,0-0.9-0.1-1.3-0.2c-0.2-0.1-0.3-0.1-0.5-0.2c-0.1,0-0.4-0.2-0.5-0.2C9.6,9.1,9.2,9,8.8,9C7.4,9,6.1,9.8,5.3,11c-1.5,2.5-0.7,6.9,1.4,9.9c1.2,1.6,1.8,2.2,2.3,2.2c0.3,0,0.5-0.1,1-0.3c0.1,0,0.1,0,0.2-0.1c1-0.4,1.8-0.6,2.8-0.6c1,0,1.7,0.2,2.7,0.6c0.1,0,0.1,0,0.2,0.1c0.5,0.2,0.7,0.3,1,0.2c0.6,0,1.1-0.5,2.3-2.1c0.4-0.5,0.7-1.1,1-1.7c-1.5-1.3-2.3-3.2-2.3-5.3c0-1.6,0.6-3.2,1.6-4.4C18.7,9.2,18,9,17.2,8.9z M11.7,7.1c-0.3,0-0.5-0.2-0.5-0.5c-0.2-1.5,0.5-3.2,1.6-4.5c1.1-1.2,2.9-2.1,4.4-2.2c0.3,0,0.6,0.2,0.6,0.5c0.2,1.6-0.4,3.3-1.6,4.6C15.1,6.4,13.4,7.2,11.7,7.1z M13.1,5.4c0.5,0,1.6-0.9,2-1.3c0.3-0.4,1.3-1.7,1.2-2.2c0-0.1-0.1-0.2-0.2-0.2c-0.5,0-1.8,1-2.1,1.4c-0.3,0.4-1.1,1.6-1.1,2.1C12.9,5.3,13,5.4,13.1,5.4z"/>
	</g>
</svg>
