<svg xmlns="http://www.w3.org/2000/svg" viewBox="0 0 48 48">
	<g>
		<path d="M31.7,2.8c-1.8,0.4-3.8,1.5-5,3c-1.3,1.5-2.2,3.6-2.2,5.4c1.8-0.2,3.7-1.3,5.1-2.9C30.8,6.7,31.6,4.7,31.7,2.8z M23.4,13.2c-0.5,0-0.9-0.4-0.9-0.9c-0.4-2.7,0.8-5.7,2.7-7.8c1.8-2.1,4.9-3.7,7.4-3.8c0.5,0,1,0.4,1,0.9c0.3,2.8-0.7,5.8-2.6,8C29.1,11.9,26.1,13.4,23.4,13.2z M41.8,17.7c-2.6,1.9-4.4,5-4.4,8.5c0,3.9,2.1,7.2,5.2,9.1c-0.1,0.3-0.2,0.7-0.4,1c-0.5,1.2-1.3,3.3-2.8,5.4c-1.9,2.8-3.9,5.6-7,5.6c-3.1,0.1-4-1.8-7.5-1.8c-3.5,0-4.6,1.8-7.5,1.9c-3,0.1-5.3-3-7.2-5.8c-3.9-5.7-6.9-16-2.9-23c2-3.5,5.6-5.7,9.4-5.7c2.9-0.1,5.7,2,7.5,2c1.8,0,5.2-2.5,8.7-2.1c1.3,0.1,4.5,0.5,7.1,3c0.4,0.4,0.7,0.7,1,1.1C41.3,17,41.5,17.3,41.8,17.7z M38.7,17.1c-1.7-1.6-3.8-2.3-5.7-2.4l-0.1,0c-1.2-0.1-2.5,0.2-4.4,0.9c-0.1,0.1-0.3,0.1-0.5,0.2c-0.2,0.1-0.4,0.1-0.5,0.2c-0.4,0.2-0.7,0.3-1,0.4c-0.8,0.3-1.5,0.4-2.2,0.4c-0.7,0-1.3-0.1-2.1-0.4c-0.3-0.1-0.6-0.2-0.9-0.3c-0.2-0.1-0.8-0.3-0.9-0.4c-1.6-0.6-2.5-0.9-3.5-0.9c-3.1,0-6.1,1.8-7.7,4.7C5.9,25,7.5,34.2,11.9,40.4c2.5,3.6,4,5,5.5,4.9c0.8,0,1.3-0.2,2.4-0.6c0.1,0,0.2-0.1,0.3-0.1c1.8-0.8,3-1.1,4.9-1.1c1.8,0,2.9,0.3,4.7,1.1c0.2,0.1,0.3,0.1,0.3,0.2c1.1,0.5,1.6,0.6,2.5,0.6c1.7,0,3-1.2,5.4-4.7c1-1.5,1.8-3,2.4-4.5c-3-2.3-4.8-5.9-4.8-9.8c0-3.3,1.3-6.5,3.6-8.8C38.9,17.3,38.8,17.2,38.7,17.1z"/>
	</g>
</svg>
