<svg xmlns="http://www.w3.org/2000/svg" viewBox="0 0 48 48">
	<g>
		<path d="M29,37v-2h15c1.1,0,2-0.9,2-2V5c0-1.1-0.9-2-2-2H4C2.9,3,2,3.9,2,5v28c0,1.1,0.9,2,2,2h20v2H4c-2.2,0-4-1.8-4-4V5c0-2.2,1.8-4,4-4h40c2.2,0,4,1.8,4,4v28c0,2.2-1.8,4-4,4H29z M29,35h15c1.1,0,2-0.9,2-2V5c0-1.1-0.9-2-2-2H4C2.9,3,2,3.9,2,5v28c0,1.1,0.9,2,2,2h20c0.6,0,1,0.4,1,1v6c0,0.6-0.4,1-1,1s-1-0.4-1-1v-5H4c-2.2,0-4-1.8-4-4V5c0-2.2,1.8-4,4-4h40c2.2,0,4,1.8,4,4v28c0,2.2-1.8,4-4,4H29c-0.6,0-1-0.4-1-1S28.4,35,29,35z M15,45h19c0.6,0,1,0.4,1,1s-0.4,1-1,1H15c-0.6,0-1-0.4-1-1S14.4,45,15,45z M16.7,19.7l9.8-9.8c1.2-1.2,3.1-1.2,4.2,0l1.7,1.7c1.2,1.2,1.2,3.1,0,4.2l-9.8,9.8c-0.5,0.5-1.1,0.8-1.7,0.8L15,27.3l0.8-5.9C15.9,20.7,16.2,20.1,16.7,19.7z M18.1,21.1c-0.2,0.2-0.3,0.4-0.3,0.6l-0.5,3.3l3.3-0.5c0.2,0,0.4-0.1,0.6-0.3l9.8-9.8c0.4-0.4,0.4-1,0-1.4l-1.7-1.7c-0.4-0.4-1-0.4-1.4,0L18.1,21.1z"/>
	</g>
</svg>
