<svg xmlns="http://www.w3.org/2000/svg" viewBox="0 0 48 48">
	<g>
		<path d="M42,7h2c0.6,0,1,0.4,1,1v35c0,0.6-0.4,1-1,1s-1-0.4-1-1V9H5v34c0,0.6-0.4,1-1,1s-1-0.4-1-1V8c0-0.6,0.4-1,1-1h2V2c0-1.1,0.9-2,2-2h32c1.1,0,2,0.9,2,2V7z M1,48c-0.6,0-1-0.4-1-1s0.4-1,1-1h46c0.6,0,1,0.4,1,1s-0.4,1-1,1H1z M10,15h28c0.6,0,1,0.4,1,1s-0.4,1-1,1H10c-0.6,0-1-0.4-1-1S9.4,15,10,15z M21,31v12c0,0.6-0.4,1-1,1s-1-0.4-1-1V30c0-0.6,0.4-1,1-1h8c0.6,0,1,0.4,1,1v13c0,0.6-0.4,1-1,1s-1-0.4-1-1V31H21z M40,7V2H8v5H40z"/>
	</g>
</svg>
