<svg xmlns="http://www.w3.org/2000/svg" viewBox="0 0 48 48">
	<g>
		<path d="M41.3,13.5h3.4c1.7,0,3,1.3,3,3c0,0.3,0,0.5-0.1,0.7c-1.3,5.2-2.3,8.5-2.9,9.9c-1.6,3.7-4.1,5.3-10.4,5.3h-13c-0.6,0-1-0.4-1-1s0.4-1,1-1h13c5.5,0,7.3-1.2,8.6-4.1c0.6-1.3,1.5-4.5,2.8-9.6c0-0.1,0-0.2,0-0.2c0-0.6-0.4-1-1-1l-32.8,0c0.4,1.5,1,3.6,1.8,6.2c2.1,7.2,2.8,9.7,3,10.5c0.6,2.3,1.6,3.2,4.5,3.2h18c0.6,0,1,0.4,1,1s-0.4,1-1,1h-18c-3.9,0-5.7-1.6-6.5-4.8c-0.2-0.8-0.9-3.4-3-10.5c-2.1-7.2-2.8-9.7-3-10.5C8.2,9.2,7.7,8.5,6.3,8.5h-5c-0.6,0-1-0.4-1-1s0.4-1,1-1h5c2.7,0,3.6,1.3,4.5,4.8c0.1,0.4,0.3,1,0.6,2.2h3.9V6c0-0.8,0.7-1.5,1.5-1.5h6.5V2c0-0.8,0.7-1.5,1.5-1.5h7c0.8,0,1.5,0.7,1.5,1.5v5.5h6.5c0.8,0,1.5,0.7,1.5,1.5V13.5z M31.3,9V2.5h-6v11h6V9z M23.3,6.5h-6v7h6V6.5z M33.3,9.5v4h6v-4H33.3z M35.8,47.5c-1.9,0-3.5-1.6-3.5-3.5s1.6-3.5,3.5-3.5c1.9,0,3.5,1.6,3.5,3.5S37.7,47.5,35.8,47.5z M35.8,45.5c0.8,0,1.5-0.7,1.5-1.5s-0.7-1.5-1.5-1.5c-0.8,0-1.5,0.7-1.5,1.5S35,45.5,35.8,45.5z M20.8,47.5c-1.9,0-3.5-1.6-3.5-3.5s1.6-3.5,3.5-3.5s3.5,1.6,3.5,3.5S22.7,47.5,20.8,47.5z M20.8,45.5c0.8,0,1.5-0.7,1.5-1.5s-0.7-1.5-1.5-1.5s-1.5,0.7-1.5,1.5S20,45.5,20.8,45.5z"/>
	</g>
</svg>
