<svg xmlns="http://www.w3.org/2000/svg" viewBox="0 0 48 48">
	<path d="M48,17C48,17,48,17,48,17v16c0,1.7-1.3,3-3,3H22c-1.7,0-3-1.3-3-3V17c0,0,0,0,0,0v-2c0-1.7,1.3-3,3-3h23c1.7,0,3,1.3,3,3V17z M46,16.5V15c0-0.6-0.4-1-1-1H22c-0.6,0-1,0.4-1,1v1.5l12.5,8.3L46,16.5z M46,18.9l-11.9,8c-0.3,0.2-0.8,0.2-1.1,0l-11.9-8V33c0,0.6,0.4,1,1,1h23c0.6,0,1-0.4,1-1V18.9z M6,16h7c0.6,0,1,0.4,1,1s-0.4,1-1,1H6c-0.6,0-1-0.4-1-1S5.4,16,6,16z M6,30h7c0.6,0,1,0.4,1,1s-0.4,1-1,1H6c-0.6,0-1-0.4-1-1S5.4,30,6,30z M1,23h7c0.6,0,1,0.4,1,1s-0.4,1-1,1H1c-0.6,0-1-0.4-1-1S0.4,23,1,23z"/>
</svg>
