<svg xmlns="http://www.w3.org/2000/svg" viewBox="0 0 96 48">
	<g>
		<path d="M94,14.9L74.3,28.6c-1.4,1-3.2,1-4.6,0L50,14.9V37c0,1.1,0.9,2,2,2h3c0.6,0,1,0.4,1,1s-0.4,1-1,1h-3c-2.2,0-4-1.8-4-4V11c0-2.2,1.8-4,4-4h40c2.2,0,4,1.8,4,4v26c0,2.2-1.8,4-4,4H62c-0.6,0-1-0.4-1-1s0.4-1,1-1h30c1.1,0,2-0.9,2-2V14.9z M94,12.5V11c0-1.1-0.9-2-2-2H52c-1.1,0-2,0.9-2,2v1.5L70.9,27c0.7,0.5,1.6,0.5,2.3,0L94,12.5z M1,23h20c0.6,0,1,0.4,1,1s-0.4,1-1,1H1c-0.6,0-1-0.4-1-1S0.4,23,1,23z M15,13h20c0.6,0,1,0.4,1,1s-0.4,1-1,1H15c-0.6,0-1-0.4-1-1S14.4,13,15,13z M15,33h20c0.6,0,1,0.4,1,1s-0.4,1-1,1H15c-0.6,0-1-0.4-1-1S14.4,33,15,33z"/>
	</g>
</svg>
