<svg xmlns="http://www.w3.org/2000/svg" viewBox="0 0 48 48">
	<g>
		<path d="M23,24.9c0,0.6-0.4,1-1,1s-1-0.4-1-1v-11c0-0.6,0.4-1,1-1s1,0.4,1,1V24.9z M23,32.9v11c0,2.2-1.8,4-4,4s-4-1.8-4-4v-11c0-0.6,0.4-1,1-1s1,0.4,1,1v11c0,1.1,0.9,2,2,2s2-0.9,2-2v-11c0-0.6,0.4-1,1-1S23,32.4,23,32.9z M7,16.9H5c-1.7,0-3,1.3-3,3s1.3,3,3,3h2V16.9z M7,24.9H5c-2.8,0-5-2.2-5-5s2.2-5,5-5h2v-1c0-2.8,2.2-5,5-5h10.8c3,0,5.9-1,8.2-2.9l6.7-5.5c0.9-0.7,2.1-0.6,2.8,0.3C40.8,1.1,41,1.6,41,2.1v12.9h2c2.8,0,5,2.2,5,5s-2.2,5-5,5h-2v12.5c0,1.1-0.9,2-2,2c-0.5,0-1-0.2-1.3-0.5l-6.6-5.8c-2.4-2.1-5.4-3.2-8.6-3.2H12C9.2,29.9,7,27.7,7,24.9z M41,22.9h2c1.7,0,3-1.3,3-3s-1.3-3-3-3h-2V22.9z M12,10.9c-1.7,0-3,1.3-3,3v11c0,1.7,1.3,3,3,3h10.5c3.6,0,7.1,1.3,9.9,3.7l6.6,5.8V2.1l-6.7,5.5c-2.7,2.2-6,3.4-9.5,3.4H12z"/>
	</g>
</svg>
