<svg xmlns="http://www.w3.org/2000/svg" viewBox="0 0 48 48">
	<g>
		<path d="M33,36.6h9c2.2,0,4-1.8,4-4v-26c0-2.2-1.8-4-4-4H6c-2.2,0-4,1.8-4,4v26c0,2.2,1.8,4,4,4h17.9l9.1,7.7V36.6z M23,25.6v-12c0-0.6-0.4-1-1-1s-1,0.4-1,1v5h-7v-5c0-0.6-0.4-1-1-1s-1,0.4-1,1v12c0,0.6,0.4,1,1,1s1-0.4,1-1v-5h7v5c0,0.6,0.4,1,1,1S23,26.1,23,25.6z M35,38.6v7.8c0,0.2-0.1,0.5-0.2,0.6c-0.4,0.4-1,0.5-1.4,0.1l-10.2-8.6H6c-3.3,0-6-2.7-6-6v-26c0-3.3,2.7-6,6-6h36c3.3,0,6,2.7,6,6v26c0,3.3-2.7,6-6,6H35z M29,25.6v-5h2.4l3.7,6h0.6c0.2,0,0.4-0.1,0.5-0.2c0.5-0.3,0.6-0.9,0.3-1.4l-2.8-4.5c1.8-0.4,3.2-2,3.2-3.9c0-2.2-1.8-4-4-4h-5c-0.6,0-1,0.4-1,1v12c0,0.6,0.4,1,1,1S29,26.1,29,25.6z M29,18.6v-4h4c1.1,0,2,0.9,2,2s-0.9,2-2,2H29z"/>
	</g>
</svg>
