<svg xmlns="http://www.w3.org/2000/svg" viewBox="0 0 48 48">
	<g>
		<path d="M0.4,3.4c0-1.7,1.3-3,3-3h17.3c1.3,0,2.6,0.5,3.5,1.5l22.4,22.4c1.2,1.2,1.2,3.1,0,4.2L28.5,46.7c-1.2,1.2-3,1.2-4.2,0L2,25.3c-1-0.9-1.5-2.2-1.5-3.6V3.4z M2.4,3.4v18.3c0,0.8,0.3,1.6,0.9,2.2l22.4,21.5c0.4,0.4,1,0.4,1.4,0l18.2-18.2c0.4-0.4,0.4-1,0-1.4L22.9,3.3c-0.6-0.6-1.3-0.9-2.1-0.9H3.4C2.9,2.4,2.4,2.8,2.4,3.4z"/>
		<path d="M27.2,22.2c1.1-1.1,2.6-1.8,4.3-1.8c3.3,0,6,2.7,6,6c0,1.6-0.6,3.1-1.8,4.2l-8.5,8.5c-0.4,0.4-1,0.4-1.4,0c-0.4-0.4-0.4-1,0-1.4l8.5-8.5c0.7-0.7,1.2-1.8,1.2-2.8c0-2.2-1.7-4-4-4c-1.1,0-2.1,0.4-2.8,1.2L27.2,25c-0.4,0.4-1,0.4-1.4,0l-1.5-1.5c-0.7-0.7-1.7-1.2-2.8-1.2c-2.2,0-4,1.8-4,4c0,1.1,0.4,2.1,1.2,2.8c1.4,1.3,2.5,2.5,3.6,3.5c0.4,0.4,0.4,1,0,1.4s-1,0.4-1.4,0c-1-1-2.2-2.2-3.6-3.5c-1.1-1.1-1.7-2.6-1.7-4.2c0-3.3,2.7-6,6-6c1.6,0,3.1,0.6,4.2,1.7l0.8,0.8L27.2,22.2z M8.4,10.4c-1.1,0-2-0.9-2-2s0.9-2,2-2c1.1,0,2,0.9,2,2S9.5,10.4,8.4,10.4z"/>
	</g>
</svg>
