<svg xmlns="http://www.w3.org/2000/svg" viewBox="0 0 20 20">
	<path d="M19.8,14.3c-0.3-0.6-1-1.3-2-2.2l0,0c-0.5-0.4-0.7-0.7-0.9-0.8c-0.2-0.3-0.3-0.5-0.1-0.8
		c0.1-0.2,0.4-0.6,0.9-1.3c0.3-0.4,0.5-0.6,0.7-0.8c1.2-1.5,1.7-2.5,1.6-2.9l-0.1-0.1c0-0.1-0.1-0.1-0.3-0.2c-0.2,0-0.4-0.1-0.7,0
		l-3,0c0,0-0.1,0-0.2,0c-0.1,0-0.1,0-0.1,0l-0.1,0l0,0c0,0-0.1,0.1-0.1,0.1c0,0-0.1,0.1-0.1,0.2c-0.3,0.8-0.7,1.5-1.1,2.2
		c-0.3,0.4-0.5,0.8-0.7,1.1C13.2,9,13,9.3,12.9,9.4c-0.1,0.1-0.3,0.3-0.4,0.3c-0.1,0.1-0.2,0.1-0.3,0.1c-0.1,0-0.1,0-0.2,0
		c-0.1-0.1-0.2-0.1-0.2-0.2c-0.1-0.1-0.1-0.2-0.1-0.4c0-0.2,0-0.3,0-0.4c0-0.1,0-0.3,0-0.5c0-0.2,0-0.3,0-0.4c0-0.3,0-0.5,0-0.8
		c0-0.3,0-0.5,0-0.7c0-0.2,0-0.4,0-0.5c0-0.2,0-0.3,0-0.5c0-0.1-0.1-0.2-0.1-0.3c0-0.1-0.1-0.2-0.2-0.2c-0.1-0.1-0.2-0.1-0.3-0.1
		c-0.4-0.1-0.8-0.1-1.4-0.1c-1.3,0-2.1,0.1-2.5,0.2C7,4.9,6.9,5,6.7,5.1C6.6,5.2,6.6,5.3,6.7,5.3c0.4,0.1,0.7,0.2,0.9,0.4l0.1,0.1
		c0,0.1,0.1,0.2,0.1,0.5c0,0.2,0.1,0.5,0.1,0.7c0,0.5,0,0.9,0,1.2c0,0.3-0.1,0.6-0.1,0.8c0,0.2-0.1,0.3-0.1,0.5
		C7.6,9.7,7.5,9.8,7.5,9.8c0,0,0,0-0.1,0c-0.1,0-0.2,0-0.3,0c-0.1,0-0.2,0-0.4-0.1C6.7,9.7,6.5,9.5,6.4,9.4C6.2,9.2,6.1,9,5.9,8.7
		c-0.2-0.3-0.4-0.6-0.6-1L5.1,7.4C5,7.2,4.9,6.9,4.7,6.6c-0.2-0.4-0.3-0.7-0.5-1C4.2,5.4,4.1,5.3,4,5.2l-0.1,0c0,0-0.1-0.1-0.2-0.1
		C3.7,5.1,3.6,5,3.5,5L0.7,5C0.4,5,0.2,5.1,0.1,5.2l0,0.1c0,0,0,0.1,0,0.2c0,0.1,0,0.2,0.1,0.3c0.4,0.9,0.9,1.8,1.4,2.7
		s0.9,1.6,1.3,2.1c0.4,0.5,0.7,1,1.1,1.5c0.4,0.5,0.6,0.8,0.7,0.9c0.1,0.1,0.2,0.2,0.3,0.3l0.3,0.2c0.2,0.2,0.4,0.4,0.7,0.6
		c0.3,0.2,0.7,0.4,1.1,0.7c0.4,0.2,0.8,0.4,1.4,0.5c0.5,0.1,1,0.2,1.5,0.2H11c0.2,0,0.4-0.1,0.6-0.2l0,0c0,0,0.1-0.1,0.1-0.2
		c0-0.1,0-0.2,0-0.3c0-0.3,0-0.5,0.1-0.8c0.1-0.2,0.1-0.4,0.2-0.5c0.1-0.1,0.1-0.2,0.2-0.3c0.1-0.1,0.1-0.1,0.2-0.1
		c0,0,0.1,0,0.1,0c0.2-0.1,0.4,0,0.6,0.2c0.2,0.2,0.4,0.3,0.6,0.6c0.2,0.2,0.4,0.5,0.7,0.8c0.3,0.3,0.5,0.5,0.7,0.6l0.2,0.1
		c0.1,0.1,0.3,0.2,0.5,0.2c0.2,0.1,0.4,0.1,0.6,0l2.7,0c0.3,0,0.5,0,0.6-0.1c0.1-0.1,0.2-0.2,0.3-0.3c0-0.1,0-0.2,0-0.3
		c0-0.1,0-0.2-0.1-0.3C19.9,14.3,19.8,14.3,19.8,14.3z"/>
</svg>
