<svg version="1" xmlns="http://www.w3.org/2000/svg" width="933.333" height="933.333" viewBox="0 0 700.000000 700.000000"><path d="M133 1.5C119.2 4 104.6 9.9 92 18.1 82.9 24 67.4 39.9 61 49.7c-2.9 4.5-5.9 8.4-6.7 8.7-3.8 1.5-13.6 8.8-20.6 15.6C19.8 87.2 9 105.3 3.3 125l-2.8 9.5-.3 233.8C0 601.4 0 602.1 2 612.3c8.3 40.8 38.9 73.3 79.5 84.5l10 2.7h473l10-2.8c19.8-5.4 38.1-16.2 51.5-30.4 6.8-7 14.1-16.8 15.6-20.6.3-.8 4.2-3.8 8.7-6.7 9.8-6.4 25.7-21.9 31.6-31 4.9-7.7 10-18 13-26.7 5.3-15.7 5.1-5.1 5.1-253.2 0-152.9-.4-231.8-1-236.1-2.5-15.5-9.6-33-18.8-46C663.5 22.4 636.5 5.6 608 1c-4.3-.6-83-1-237-.9-189.2.1-231.8.3-238 1.4zm232.5 197.8c30 5.7 54.4 16.7 76 34 32.2 25.9 52.7 61.8 59.7 104.2 1.7 10.7 1.7 58.1-.1 69-5.8 36.2-21.2 66.6-46.6 92-25 25-53.2 39.4-90.2 46.2-7.6 1.4-21.4 1.7-99 2l-90.3.4V196.9l91.3.4c76.8.3 92.5.7 99.2 2z"/><path d="M240.5 263.2c-.3.7-.4 50.1-.3 109.8l.3 108.5 45.5.3c65.4.4 76-.8 96.5-10.8 30.6-14.9 51-44.5 54.6-79.1 1.5-14.1.7-40.6-1.6-51.4-3.8-18.2-13.2-35.3-26.9-49.1-9.8-9.7-19.9-16.5-32-21.5-17.4-7.1-17.7-7.2-79.9-7.6-45.6-.4-55.8-.2-56.2.9z"/></svg>