<?xml version="1.0" standalone="no"?>
<!DOCTYPE svg PUBLIC "-//W3C//DTD SVG 20010904//EN"
 "http://www.w3.org/TR/2001/REC-SVG-20010904/DTD/svg10.dtd">
<svg version="1.0" xmlns="http://www.w3.org/2000/svg"
 width="700.000000pt" height="700.000000pt" viewBox="0 0 700.000000 700.000000"
 preserveAspectRatio="xMidYMid meet">
<metadata>
Created by potrace 1.11, written by Peter Selinger 2001-2013
</metadata>
<g transform="translate(0.000000,700.000000) scale(0.100000,-0.100000)"
fill="#000000" stroke="none">
<path d="M1330 6985 c-138 -25 -284 -84 -410 -166 -91 -59 -246 -218 -310
-316 -29 -45 -59 -84 -67 -87 -38 -15 -136 -88 -206 -156 -139 -132 -247 -313
-304 -510 l-28 -95 -3 -2338 c-2 -2331 -2 -2338 18 -2440 83 -408 389 -733
795 -845 l100 -27 2365 0 2365 0 100 28 c198 54 381 162 515 304 68 70 141
168 156 206 3 8 42 38 87 67 98 64 257 219 316 310 49 77 100 180 130 267 53
157 51 51 51 2532 0 1529 -4 2318 -10 2361 -25 155 -96 330 -188 460 -167 236
-437 404 -722 450 -43 6 -830 10 -2370 9 -1892 -1 -2318 -3 -2380 -14z m2325
-1978 c300 -57 544 -167 760 -340 322 -259 527 -618 597 -1042 17 -107 17
-581 -1 -690 -58 -362 -212 -666 -466 -920 -250 -250 -532 -394 -902 -462 -76
-14 -214 -17 -990 -20 l-903 -4 0 1751 0 1751 913 -4 c768 -3 925 -7 992 -20z"/>
<path d="M2405 4368 c-3 -7 -4 -501 -3 -1098 l3 -1085 455 -3 c654 -4 760 8
965 108 306 149 510 445 546 791 15 141 7 406 -16 514 -38 182 -132 353 -269
491 -98 97 -199 165 -320 215 -174 71 -177 72 -799 76 -456 4 -558 2 -562 -9z"/>
</g>
</svg>
