<svg xmlns="http://www.w3.org/2000/svg" viewBox="0 0 103 52"><style>.st0{fill:#4740e3}.st1{fill:#00e0b4}.st2{fill:#00b8c0}.st3{fill:#fff}</style><path class="st0" d="M39 10h61c1.7 0 3 1.3 3 3v36c0 1.7-1.3 3-3 3H39c-1.7 0-3-1.3-3-3V13c0-1.7 1.3-3 3-3z"/><path class="st1" d="M3 0h61c1.7 0 3 1.3 3 3v36c0 1.7-1.3 3-3 3H3c-1.7 0-3-1.3-3-3V3c0-1.7 1.3-3 3-3z"/><path class="st2" d="M39 10h28v29c0 1.7-1.3 3-3 3H36V13c0-1.7 1.3-3 3-3z"/><path class="st3" d="M28.5 19.8c0-.5.3-.8.8-.8h.9c.5 0 .8.3.8.8v11.8c0 .5-.3.8-.8.8h-.9c-.5 0-.8-.3-.8-.8V19.8zM39.8 25.8c0-1 .2-1.9.5-2.8.3-.9.8-1.6 1.4-2.2s1.3-1.1 2.2-1.5 1.7-.5 2.7-.5c.5 0 1.1 0 1.5.1s.9.2 1.3.3c.4.1.7.3 1 .4s.5.3.6.4c.4.3.4.7.2 1.1l-.3.5c-.1.2-.3.3-.5.4-.2 0-.4 0-.6-.2-.3-.2-.7-.4-1.2-.5-.5-.2-1.1-.3-1.8-.3s-1.4.1-1.9.4c-.6.2-1 .6-1.4 1s-.7.9-.9 1.5c-.2.6-.3 1.2-.3 1.8 0 .7.1 1.3.3 1.9s.5 1.1.9 1.5c.4.4.9.7 1.4 1 .5.2 1.1.3 1.7.3.6 0 1-.1 1.5-.2.4-.2.8-.3 1.1-.5.3-.2.6-.5.8-.7v-1.2-.6h-2.2c-.5 0-.8-.3-.8-.8v-.5c0-.5.3-.8.8-.8h3.6c.5 0 .8.3.8.8v1.3c0 .8-.1 2.1-.1 2.4-.2.9-1.2 1.7-1.7 2s-1 .6-1.6.8c-.6.2-1.8.4-2.5.4-.9 0-1.7-.2-2.5-.5s-1.5-.8-2.1-1.4-1.1-1.3-1.4-2.2c-.3-1-.5-1.9-.5-2.9zM59.8 19.8c0-.5.3-.8.8-.8h.9c.5 0 .8.3.8.8v11.8c0 .5-.3.8-.8.8h-.9c-.5 0-.8-.3-.8-.8V19.8zM71.9 19.8c0-.5.3-.8.8-.8h6.1c.5 0 .8.3.8.8v.5c0 .5-.3.8-.8.8h-4.4v3.8H78c.5 0 .8.3.8.8v.5c0 .5-.3.8-.8.8h-3.6v4.6c0 .5-.3.8-.8.8h-.9c-.5 0-.8-.3-.8-.8V19.8zM89.5 21.1h-3.6c-.5 0-.8-.3-.8-.8v-.5c0-.5.3-.8.8-.8h9.5c.5 0 .8.3.8.8v.5c0 .5-.3.8-.8.8h-3.6v10.5c0 .5-.3.8-.8.8h-.8c-.5 0-.8-.3-.8-.8V21.1zM9.7 19.8c0-.5.3-.8.8-.8h3.8c1 0 1.9.2 2.8.5s1.5.7 2.1 1.3c.6.6 1 1.3 1.4 2.1.3.8.5 1.8.5 2.8 0 1.1-.2 2-.5 2.8-.3.8-.8 1.5-1.4 2.1-.6.6-1.3 1-2.1 1.3s-1.8.5-2.8.5h-3.8c-.5 0-.8-.3-.8-.8V19.8zm4.4 10.5c1.3 0 2.4-.4 3.2-1.2.8-.8 1.2-1.9 1.2-3.4 0-.7-.1-1.4-.3-2-.2-.6-.5-1-.9-1.4-.4-.4-.8-.7-1.4-.9-.5-.2-1.1-.3-1.8-.3h-2v9.2h2z"/></svg>